<svg width="78" height="107" viewBox="0 0 78 107" fill="none" xmlns="http://www.w3.org/2000/svg">
<g id="Layer_1" clip-path="url(#clip0_49_36)">
<path id="Vector" d="M13.7421 71.7896H64.2579V24.476H13.7421V71.8137V71.7896ZM64.6417 72.4883H13V23.7773H65V72.4883H64.6417Z" fill="#231F20"/>
<path id="Vector_2" d="M38.9999 84.1715C47.7263 84.1715 55.6594 80.8229 61.3917 75.4025C67.1495 69.9822 70.7066 62.5382 70.7066 54.3234C70.7066 46.1085 67.1495 38.6405 61.3917 33.2442C55.6338 27.8239 47.7263 24.4753 38.9999 24.4753C30.2736 24.4753 22.3405 27.8239 16.6082 33.2442C10.8503 38.6646 7.29324 46.1085 7.29324 54.3234C7.29324 62.5382 10.8503 70.0063 16.6082 75.4025C22.3661 80.8229 30.2736 84.1715 38.9999 84.1715ZM61.9291 75.8844C56.0433 81.4252 47.931 84.846 39.0255 84.846C30.12 84.846 21.9822 81.4011 16.122 75.8844C10.2362 70.3435 6.60229 62.7069 6.60229 54.3234C6.60229 45.9399 10.2617 38.2791 16.122 32.7624C22.0078 27.2216 30.12 23.8008 39.0255 23.8008C47.931 23.8008 56.0688 27.2457 61.9291 32.7624C67.8149 38.3032 71.4488 45.9399 71.4488 54.3234C71.4488 62.7069 67.7893 70.3676 61.9291 75.8844Z" fill="#231F20"/>
<path id="Vector_3" d="M37.6949 34.3777H63.1575H64.9744V48.013C64.9744 54.7342 62.0571 60.8532 57.3484 65.2858C52.6398 69.7185 46.1398 72.4648 39 72.4648C31.8602 72.4648 25.3602 69.7185 20.626 65.2858C15.9173 60.8532 13 54.7342 13 47.9889V24.4525C13 17.7312 15.9173 11.6123 20.626 7.15552C25.3346 2.72288 31.8346 -0.0234375 39 -0.0234375C46.1398 -0.0234375 52.6398 2.72288 57.374 7.15552C62.0827 11.5882 65 17.7071 65 24.4525H61.3405C61.3405 18.6708 58.8327 13.419 54.7638 9.58866C50.7205 5.78236 45.1161 3.39741 38.9744 3.39741C32.8327 3.39741 27.2539 5.75827 23.185 9.58866C19.1417 13.395 16.6083 18.6708 16.6083 24.4525V47.9889C16.6083 53.7706 19.1161 59.0223 23.185 62.8527C27.2539 66.6831 32.8327 69.0439 38.9744 69.0439C45.1161 69.0439 50.6949 66.6831 54.7382 62.8527C58.7815 59.0464 61.315 53.7706 61.315 48.013V37.8227H37.6693V34.3777H37.6949Z" fill="url(#paint0_linear_49_36)"/>
<path id="Vector_4" fill-rule="evenodd" clip-rule="evenodd" d="M4.06885 98.5526H7.60035C7.88185 98.5526 8.11216 98.7694 8.11216 99.0344V102.359C8.11216 102.889 8.0098 103.371 7.80507 103.828C7.60035 104.286 7.31885 104.696 6.90941 105.057C6.52555 105.418 6.09051 105.707 5.60429 105.9C5.11807 106.093 4.60626 106.189 4.04326 106.189C3.48027 106.189 2.96846 106.093 2.48224 105.9C1.99602 105.707 1.56098 105.442 1.17712 105.057C0.793263 104.696 0.486176 104.286 0.281452 103.828C0.0767274 103.371 -0.0256348 102.889 -0.0256348 102.359V95.6859C-0.0256348 95.1559 0.0767274 94.674 0.281452 94.2404C0.486176 93.7827 0.767672 93.3732 1.17712 93.0118C1.56098 92.6264 1.99602 92.3614 2.48224 92.1686C2.96846 91.9759 3.48027 91.8796 4.04326 91.8796C4.60626 91.8796 5.11807 91.9759 5.60429 92.1686C6.09051 92.3614 6.52555 92.6264 6.90941 93.0118C7.29326 93.3732 7.60035 93.7827 7.80507 94.2404C8.0098 94.6981 8.11216 95.18 8.11216 95.6859C8.11216 95.9508 7.88185 96.1677 7.60035 96.1677H6.70468C6.42318 96.1677 6.19287 95.9508 6.19287 95.6859C6.19287 95.3968 6.14169 95.1318 6.03933 94.915C5.93696 94.6741 5.78342 94.4572 5.5787 94.2645C5.37397 94.0718 5.14366 93.9272 4.88775 93.8309C4.63185 93.7345 4.35035 93.6863 4.06885 93.6863C3.78736 93.6863 3.50586 93.7345 3.24996 93.8309C2.99405 93.9272 2.76374 94.0718 2.55901 94.2645C2.35429 94.4572 2.20074 94.6741 2.09838 94.915C1.99602 95.1559 1.94484 95.3968 1.94484 95.6859V102.359C1.94484 102.648 1.99602 102.913 2.09838 103.13C2.20074 103.371 2.35429 103.588 2.5846 103.78C2.78933 103.973 3.01964 104.142 3.27555 104.238C3.53145 104.334 3.78736 104.383 4.09444 104.383C4.40153 104.383 4.65744 104.334 4.91334 104.238C5.16925 104.142 5.39956 103.997 5.60429 103.78C5.80901 103.588 5.96255 103.371 6.09051 103.13C6.19287 102.889 6.24405 102.624 6.24405 102.359V100.359H4.12003C3.83854 100.359 3.60822 100.143 3.60822 99.8776V99.0344C3.60822 98.7694 3.83854 98.5526 4.12003 98.5526H4.06885ZM18.8346 93.6623H13.1535V98.0949H17.0689C17.3504 98.0949 17.5807 98.3117 17.5807 98.5767V99.4199C17.5807 99.6849 17.3504 99.9017 17.0689 99.9017H13.1535V104.383H18.8346C19.1161 104.383 19.3464 104.599 19.3464 104.864V105.707C19.3464 105.972 19.1161 106.189 18.8346 106.189H11.746C11.4645 106.189 11.2342 105.972 11.2342 105.707V92.3614C11.2342 92.0964 11.4645 91.8796 11.746 91.8796H18.8346C19.1161 91.8796 19.3464 92.0964 19.3464 92.3614V93.2045C19.3464 93.4695 19.1161 93.6863 18.8346 93.6863V93.6623ZM31.6299 91.8796H32.5256C32.807 91.8796 33.0374 92.0964 33.0374 92.3614V105.707C33.0374 105.972 32.807 106.189 32.5256 106.189C32.3464 106.189 32.1929 106.093 32.0905 105.972L24.3878 96.2881V105.707C24.3878 105.972 24.1574 106.189 23.8759 106.189H22.9803C22.6988 106.189 22.4685 105.972 22.4685 105.707V92.3614C22.4685 92.0964 22.6988 91.8796 22.9803 91.8796C23.1594 91.8796 23.313 91.9759 23.4153 92.0964L31.1181 101.757V92.3614C31.1181 92.0964 31.3484 91.8796 31.6299 91.8796ZM43.7598 93.6623H38.0787V98.0949H41.9941C42.2756 98.0949 42.5059 98.3117 42.5059 98.5767V99.4199C42.5059 99.6849 42.2756 99.9017 41.9941 99.9017H38.0787V105.683C38.0787 105.948 37.8484 106.165 37.5669 106.165H36.6712C36.3897 106.165 36.1594 105.948 36.1594 105.683V92.3373C36.1594 92.0723 36.3897 91.8555 36.6712 91.8555H43.7598C44.0413 91.8555 44.2716 92.0723 44.2716 92.3373V93.1804C44.2716 93.4454 44.0413 93.6623 43.7598 93.6623ZM55.0196 93.6623H52.435V104.358H55.0196C55.3011 104.358 55.5315 104.575 55.5315 104.84V105.683C55.5315 105.948 55.3011 106.165 55.0196 106.165H47.9311C47.6496 106.165 47.4193 105.948 47.4193 105.683V104.84C47.4193 104.575 47.6496 104.358 47.9311 104.358H50.5157V93.6623H47.9311C47.6496 93.6623 47.4193 93.4454 47.4193 93.1804V92.3373C47.4193 92.0723 47.6496 91.8555 47.9311 91.8555H55.0196C55.3011 91.8555 55.5315 92.0723 55.5315 92.3373V93.1804C55.5315 93.4454 55.3011 93.6623 55.0196 93.6623ZM59.1653 91.8796H66.2539C66.5354 91.8796 66.7657 92.0964 66.7657 92.3614V93.2045C66.7657 93.4695 66.5354 93.6863 66.2539 93.6863H63.6693V105.707C63.6693 105.972 63.4389 106.189 63.1574 106.189H62.2618C61.9803 106.189 61.75 105.972 61.75 105.707V93.6863H59.1653C58.8838 93.6863 58.6535 93.4695 58.6535 93.2045V92.3614C58.6535 92.0964 58.8838 91.8796 59.1653 91.8796ZM71.0905 92.9877C71.4744 92.6264 71.9094 92.3373 72.3956 92.1446C72.8819 91.9518 73.3937 91.8555 73.9567 91.8555C74.5196 91.8555 75.0315 91.9518 75.5177 92.1446C76.0039 92.3373 76.4389 92.6023 76.8228 92.9877C77.2067 93.3491 77.5137 93.7586 77.7185 94.2163C77.9232 94.6741 78.0256 95.1559 78.0256 95.6618V102.335C78.0256 102.865 77.9232 103.347 77.7185 103.804C77.5137 104.262 77.2322 104.672 76.8228 105.033C76.4389 105.394 76.0039 105.683 75.5177 105.876C75.0315 106.069 74.5196 106.165 73.9822 106.165C73.4704 106.165 72.9842 106.093 72.5492 105.924C72.0885 105.756 71.6791 105.515 71.2952 105.202C71.2952 105.202 71.2952 105.202 71.2696 105.177C70.9114 104.864 70.6043 104.527 70.374 104.118C70.1693 103.756 70.0413 103.395 69.9645 102.985C69.9389 102.913 69.9133 102.841 69.9133 102.768V95.6618C69.9133 95.1318 70.0157 94.65 70.2204 94.2163C70.4252 93.7586 70.7067 93.3491 71.1161 92.9877H71.0905ZM76.1063 102.359V95.6859C76.1063 95.3968 76.0551 95.1318 75.9527 94.915C75.8504 94.6741 75.6968 94.4572 75.4921 94.2645C75.2874 94.0718 75.057 93.9272 74.8011 93.8309C74.5452 93.7345 74.2637 93.6863 73.9822 93.6863C73.7008 93.6863 73.4193 93.7345 73.1633 93.8309C72.9074 93.9272 72.6771 94.0718 72.4724 94.2645C72.2677 94.4572 72.1141 94.6741 72.0118 94.915C71.9094 95.1559 71.8582 95.3968 71.8582 95.6859V102.359C71.8582 102.648 71.9094 102.913 72.0118 103.13C72.1141 103.371 72.2677 103.588 72.498 103.78C72.7027 103.973 72.933 104.142 73.1889 104.238C73.4448 104.334 73.7008 104.383 74.0078 104.383C74.3149 104.383 74.5708 104.334 74.8267 104.238C75.0826 104.142 75.313 103.997 75.5177 103.78C75.7224 103.588 75.8759 103.371 76.0039 103.13C76.1063 102.889 76.1574 102.624 76.1574 102.359H76.1063Z" fill="#231F20"/>
</g>
<defs>
<linearGradient id="paint0_linear_49_36" x1="39" y1="0.000652963" x2="39" y2="72.4889" gradientUnits="userSpaceOnUse">
<stop stop-color="#1C75BC"/>
<stop offset="0.05" stop-color="#1C75BC"/>
<stop offset="0.37" stop-color="#1C75BC"/>
<stop offset="0.42" stop-color="#237DC1"/>
<stop offset="0.51" stop-color="#3793CF"/>
<stop offset="0.61" stop-color="#57B6E6"/>
<stop offset="0.67" stop-color="#6DCFF6"/>
<stop offset="0.73" stop-color="#68C9F2"/>
<stop offset="0.81" stop-color="#59B9E8"/>
<stop offset="0.89" stop-color="#429FD7"/>
<stop offset="0.99" stop-color="#217BBF"/>
<stop offset="1" stop-color="#1C75BC"/>
</linearGradient>
<clipPath id="clip0_49_36">
<rect width="78" height="106.167" fill="white"/>
</clipPath>
</defs>
</svg>
