<svg width="78" height="107" viewBox="0 0 78 107" fill="none" xmlns="http://www.w3.org/2000/svg">
<g id="Layer_1" clip-path="url(#clip0_49_105)">
<path id="Vector" d="M13.7421 71.7896H64.2579V24.476H13.7421V71.8137V71.7896ZM64.6417 72.4883H13V23.7773H65V72.4883H64.6417Z" fill="#231F20"/>
<path id="Vector_2" d="M39.0002 84.1715C47.7266 84.1715 55.6596 80.8229 61.3919 75.4025C67.1498 69.9822 70.7069 62.5382 70.7069 54.3234C70.7069 46.1085 67.1498 38.6405 61.3919 33.2442C55.634 27.8239 47.7266 24.4753 39.0002 24.4753C30.2738 24.4753 22.3407 27.8239 16.6084 33.2442C10.8506 38.6646 7.29348 46.1085 7.29348 54.3234C7.29348 62.5382 10.8506 70.0063 16.6084 75.4025C22.3663 80.8229 30.2738 84.1715 39.0002 84.1715ZM61.9293 75.8844C56.0435 81.4252 47.9313 84.846 39.0258 84.846C30.1203 84.846 21.9825 81.4011 16.1222 75.8844C10.2364 70.3435 6.60254 62.7069 6.60254 54.3234C6.60254 45.9399 10.262 38.2791 16.1222 32.7624C22.0081 27.2216 30.1203 23.8008 39.0258 23.8008C47.9313 23.8008 56.0691 27.2457 61.9293 32.7624C67.8152 38.3032 71.449 45.9399 71.449 54.3234C71.449 62.7069 67.7896 70.3676 61.9293 75.8844Z" fill="#231F20"/>
<path id="Vector_3" d="M37.6949 34.3777H63.1575H64.9744V48.013C64.9744 54.7342 62.0571 60.8532 57.3484 65.2858C52.6398 69.7185 46.1398 72.4648 39 72.4648C31.8602 72.4648 25.3602 69.7185 20.626 65.2858C15.9173 60.8532 13 54.7342 13 47.9889V24.4525C13 17.7312 15.9173 11.6123 20.626 7.15552C25.3346 2.72288 31.8346 -0.0234375 39 -0.0234375C46.1398 -0.0234375 52.6398 2.72288 57.374 7.15552C62.0827 11.5882 65 17.7071 65 24.4525H61.3405C61.3405 18.6708 58.8327 13.419 54.7638 9.58866C50.7205 5.78236 45.1161 3.39741 38.9744 3.39741C32.8327 3.39741 27.2539 5.75827 23.185 9.58866C19.1417 13.395 16.6083 18.6708 16.6083 24.4525V47.9889C16.6083 53.7706 19.1161 59.0223 23.185 62.8527C27.2539 66.6831 32.8327 69.0439 38.9744 69.0439C45.1161 69.0439 50.6949 66.6831 54.7382 62.8527C58.7815 59.0464 61.315 53.7706 61.315 48.013V37.8227H37.6693V34.3777H37.6949Z" fill="url(#paint0_linear_49_105)"/>
<path id="Vector_4" fill-rule="evenodd" clip-rule="evenodd" d="M4.0691 98.5526H7.60059C7.88209 98.5526 8.11241 98.7694 8.11241 99.0344V102.359C8.11241 102.889 8.01004 103.371 7.80532 103.828C7.60059 104.286 7.3191 104.696 6.90965 105.057C6.52579 105.418 6.09075 105.707 5.60453 105.9C5.11831 106.093 4.6065 106.189 4.04351 106.189C3.48052 106.189 2.9687 106.093 2.48248 105.9C1.99626 105.707 1.56122 105.442 1.17737 105.057C0.793507 104.696 0.48642 104.286 0.281696 103.828C0.0769716 103.371 -0.0253906 102.889 -0.0253906 102.359V95.6859C-0.0253906 95.1559 0.0769716 94.674 0.281696 94.2404C0.48642 93.7827 0.767917 93.3732 1.17737 93.0118C1.56122 92.6264 1.99626 92.3614 2.48248 92.1686C2.9687 91.9759 3.48052 91.8796 4.04351 91.8796C4.6065 91.8796 5.11831 91.9759 5.60453 92.1686C6.09075 92.3614 6.52579 92.6264 6.90965 93.0118C7.29351 93.3732 7.60059 93.7827 7.80532 94.2404C8.01004 94.6981 8.11241 95.18 8.11241 95.6859C8.11241 95.9508 7.88209 96.1677 7.60059 96.1677H6.70492C6.42343 96.1677 6.19311 95.9508 6.19311 95.6859C6.19311 95.3968 6.14193 95.1318 6.03957 94.915C5.93721 94.6741 5.78367 94.4572 5.57894 94.2645C5.37422 94.0718 5.1439 93.9272 4.888 93.8309C4.63209 93.7345 4.35059 93.6863 4.0691 93.6863C3.7876 93.6863 3.50611 93.7345 3.2502 93.8309C2.99429 93.9272 2.76398 94.0718 2.55926 94.2645C2.35453 94.4572 2.20099 94.6741 2.09863 94.915C1.99626 95.1559 1.94508 95.3968 1.94508 95.6859V102.359C1.94508 102.648 1.99626 102.913 2.09863 103.13C2.20099 103.371 2.35453 103.588 2.58485 103.78C2.78957 103.973 3.01989 104.142 3.27579 104.238C3.5317 104.334 3.7876 104.383 4.09469 104.383C4.40178 104.383 4.65768 104.334 4.91359 104.238C5.16949 104.142 5.39981 103.997 5.60453 103.78C5.80926 103.588 5.9628 103.371 6.09075 103.13C6.19311 102.889 6.2443 102.624 6.2443 102.359V100.359H4.12028C3.83878 100.359 3.60847 100.143 3.60847 99.8776V99.0344C3.60847 98.7694 3.83878 98.5526 4.12028 98.5526H4.0691ZM18.8348 93.6623H13.1537V98.0949H17.0691C17.3506 98.0949 17.5809 98.3117 17.5809 98.5767V99.4199C17.5809 99.6849 17.3506 99.9017 17.0691 99.9017H13.1537V104.383H18.8348C19.1163 104.383 19.3467 104.599 19.3467 104.864V105.707C19.3467 105.972 19.1163 106.189 18.8348 106.189H11.7463C11.4648 106.189 11.2345 105.972 11.2345 105.707V92.3614C11.2345 92.0964 11.4648 91.8796 11.7463 91.8796H18.8348C19.1163 91.8796 19.3467 92.0964 19.3467 92.3614V93.2045C19.3467 93.4695 19.1163 93.6863 18.8348 93.6863V93.6623ZM31.6301 91.8796H32.5258C32.8073 91.8796 33.0376 92.0964 33.0376 92.3614V105.707C33.0376 105.972 32.8073 106.189 32.5258 106.189C32.3467 106.189 32.1931 106.093 32.0908 105.972L24.388 96.2881V105.707C24.388 105.972 24.1577 106.189 23.8762 106.189H22.9805C22.699 106.189 22.4687 105.972 22.4687 105.707V92.3614C22.4687 92.0964 22.699 91.8796 22.9805 91.8796C23.1597 91.8796 23.3132 91.9759 23.4156 92.0964L31.1183 101.757V92.3614C31.1183 92.0964 31.3486 91.8796 31.6301 91.8796ZM43.76 93.6623H38.0789V98.0949H41.9943C42.2758 98.0949 42.5061 98.3117 42.5061 98.5767V99.4199C42.5061 99.6849 42.2758 99.9017 41.9943 99.9017H38.0789V105.683C38.0789 105.948 37.8486 106.165 37.5671 106.165H36.6715C36.39 106.165 36.1597 105.948 36.1597 105.683V92.3373C36.1597 92.0723 36.39 91.8555 36.6715 91.8555H43.76C44.0415 91.8555 44.2719 92.0723 44.2719 92.3373V93.1804C44.2719 93.4454 44.0415 93.6623 43.76 93.6623ZM55.0199 93.6623H52.4352V104.358H55.0199C55.3014 104.358 55.5317 104.575 55.5317 104.84V105.683C55.5317 105.948 55.3014 106.165 55.0199 106.165H47.9313C47.6498 106.165 47.4195 105.948 47.4195 105.683V104.84C47.4195 104.575 47.6498 104.358 47.9313 104.358H50.516V93.6623H47.9313C47.6498 93.6623 47.4195 93.4454 47.4195 93.1804V92.3373C47.4195 92.0723 47.6498 91.8555 47.9313 91.8555H55.0199C55.3014 91.8555 55.5317 92.0723 55.5317 92.3373V93.1804C55.5317 93.4454 55.3014 93.6623 55.0199 93.6623ZM59.1656 91.8796H66.2541C66.5356 91.8796 66.766 92.0964 66.766 92.3614V93.2045C66.766 93.4695 66.5356 93.6863 66.2541 93.6863H63.6695V105.707C63.6695 105.972 63.4392 106.189 63.1577 106.189H62.262C61.9805 106.189 61.7502 105.972 61.7502 105.707V93.6863H59.1656C58.8841 93.6863 58.6537 93.4695 58.6537 93.2045V92.3614C58.6537 92.0964 58.8841 91.8796 59.1656 91.8796ZM71.0908 92.9877C71.4746 92.6264 71.9097 92.3373 72.3959 92.1446C72.8821 91.9518 73.3939 91.8555 73.9569 91.8555C74.5199 91.8555 75.0317 91.9518 75.5179 92.1446C76.0041 92.3373 76.4392 92.6023 76.823 92.9877C77.2069 93.3491 77.514 93.7586 77.7187 94.2163C77.9234 94.6741 78.0258 95.1559 78.0258 95.6618V102.335C78.0258 102.865 77.9234 103.347 77.7187 103.804C77.514 104.262 77.2325 104.672 76.823 105.033C76.4392 105.394 76.0041 105.683 75.5179 105.876C75.0317 106.069 74.5199 106.165 73.9825 106.165C73.4707 106.165 72.9845 106.093 72.5494 105.924C72.0888 105.756 71.6793 105.515 71.2955 105.202C71.2955 105.202 71.2955 105.202 71.2699 105.177C70.9116 104.864 70.6045 104.527 70.3742 104.118C70.1695 103.756 70.0415 103.395 69.9648 102.985C69.9392 102.913 69.9136 102.841 69.9136 102.768V95.6618C69.9136 95.1318 70.016 94.65 70.2207 94.2163C70.4254 93.7586 70.7069 93.3491 71.1163 92.9877H71.0908ZM76.1065 102.359V95.6859C76.1065 95.3968 76.0553 95.1318 75.953 94.915C75.8506 94.6741 75.6971 94.4572 75.4923 94.2645C75.2876 94.0718 75.0573 93.9272 74.8014 93.8309C74.5455 93.7345 74.264 93.6863 73.9825 93.6863C73.701 93.6863 73.4195 93.7345 73.1636 93.8309C72.9077 93.9272 72.6774 94.0718 72.4726 94.2645C72.2679 94.4572 72.1144 94.6741 72.012 94.915C71.9097 95.1559 71.8585 95.3968 71.8585 95.6859V102.359C71.8585 102.648 71.9097 102.913 72.012 103.13C72.1144 103.371 72.2679 103.588 72.4982 103.78C72.703 103.973 72.9333 104.142 73.1892 104.238C73.4451 104.334 73.701 104.383 74.0081 104.383C74.3152 104.383 74.5711 104.334 74.827 104.238C75.0829 104.142 75.3132 103.997 75.5179 103.78C75.7226 103.588 75.8762 103.371 76.0041 103.13C76.1065 102.889 76.1577 102.624 76.1577 102.359H76.1065Z" fill="#231F20"/>
</g>
<defs>
<linearGradient id="paint0_linear_49_105" x1="39" y1="0.000652963" x2="39" y2="72.4889" gradientUnits="userSpaceOnUse">
<stop stop-color="#1C75BC"/>
<stop offset="0.05" stop-color="#1C75BC"/>
<stop offset="0.37" stop-color="#1C75BC"/>
<stop offset="0.42" stop-color="#237DC1"/>
<stop offset="0.51" stop-color="#3793CF"/>
<stop offset="0.61" stop-color="#57B6E6"/>
<stop offset="0.67" stop-color="#6DCFF6"/>
<stop offset="0.73" stop-color="#68C9F2"/>
<stop offset="0.81" stop-color="#59B9E8"/>
<stop offset="0.89" stop-color="#429FD7"/>
<stop offset="0.99" stop-color="#217BBF"/>
<stop offset="1" stop-color="#1C75BC"/>
</linearGradient>
<clipPath id="clip0_49_105">
<rect width="78" height="106.167" fill="white"/>
</clipPath>
</defs>
</svg>
