<svg width="78" height="107" viewBox="0 0 78 107" fill="none" xmlns="http://www.w3.org/2000/svg">
<g id="Layer_1" clip-path="url(#clip0_0_466)">
<path id="Vector" d="M13.7421 71.7896H64.2579V24.476H13.7421V71.8137V71.7896ZM64.6417 72.4883H13V23.7773H65V72.4883H64.6417Z" fill="#231F20"/>
<path id="Vector_2" d="M39 84.1715C47.7264 84.1715 55.6595 80.8229 61.3917 75.4025C67.1496 69.9822 70.7067 62.5382 70.7067 54.3234C70.7067 46.1085 67.1496 38.6405 61.3917 33.2442C55.6339 27.8239 47.7264 24.4753 39 24.4753C30.2736 24.4753 22.3405 27.8239 16.6083 33.2442C10.8504 38.6646 7.2933 46.1085 7.2933 54.3234C7.2933 62.5382 10.8504 70.0063 16.6083 75.4025C22.3661 80.8229 30.2736 84.1715 39 84.1715ZM61.9291 75.8844C56.0433 81.4252 47.9311 84.846 39.0256 84.846C30.1201 84.846 21.9823 81.4011 16.122 75.8844C10.2362 70.3435 6.60236 62.7069 6.60236 54.3234C6.60236 45.9399 10.2618 38.2791 16.122 32.7624C22.0079 27.2216 30.1201 23.8008 39.0256 23.8008C47.9311 23.8008 56.0689 27.2457 61.9291 32.7624C67.815 38.3032 71.4488 45.9399 71.4488 54.3234C71.4488 62.7069 67.7894 70.3676 61.9291 75.8844Z" fill="#231F20"/>
<path id="Vector_3" d="M37.6949 34.3777H63.1575H64.9744V48.013C64.9744 54.7342 62.0571 60.8532 57.3484 65.2858C52.6398 69.7185 46.1398 72.4648 39 72.4648C31.8602 72.4648 25.3602 69.7185 20.626 65.2858C15.9173 60.8532 13 54.7342 13 47.9889V24.4525C13 17.7312 15.9173 11.6123 20.626 7.15552C25.3346 2.72288 31.8346 -0.0234375 39 -0.0234375C46.1398 -0.0234375 52.6398 2.72288 57.374 7.15552C62.0827 11.5882 65 17.7071 65 24.4525H61.3405C61.3405 18.6708 58.8327 13.419 54.7638 9.58866C50.7205 5.78236 45.1161 3.39741 38.9744 3.39741C32.8327 3.39741 27.2539 5.75827 23.185 9.58866C19.1417 13.395 16.6083 18.6708 16.6083 24.4525V47.9889C16.6083 53.7706 19.1161 59.0223 23.185 62.8527C27.2539 66.6831 32.8327 69.0439 38.9744 69.0439C45.1161 69.0439 50.6949 66.6831 54.7382 62.8527C58.7815 59.0464 61.315 53.7706 61.315 48.013V37.8227H37.6693V34.3777H37.6949Z" fill="url(#paint0_linear_0_466)"/>
<path id="Vector_4" fill-rule="evenodd" clip-rule="evenodd" d="M4.06891 98.5526H7.60041C7.88191 98.5526 8.11222 98.7694 8.11222 99.0344V102.359C8.11222 102.889 8.00986 103.371 7.80514 103.828C7.60041 104.286 7.31892 104.696 6.90947 105.057C6.52561 105.418 6.09057 105.707 5.60435 105.9C5.11813 106.093 4.60632 106.189 4.04332 106.189C3.48033 106.189 2.96852 106.093 2.4823 105.9C1.99608 105.707 1.56104 105.442 1.17718 105.057C0.793324 104.696 0.486237 104.286 0.281513 103.828C0.0767885 103.371 -0.0255737 102.889 -0.0255737 102.359V95.6859C-0.0255737 95.1559 0.0767885 94.674 0.281513 94.2404C0.486237 93.7827 0.767733 93.3732 1.17718 93.0118C1.56104 92.6264 1.99608 92.3614 2.4823 92.1686C2.96852 91.9759 3.48033 91.8796 4.04332 91.8796C4.60632 91.8796 5.11813 91.9759 5.60435 92.1686C6.09057 92.3614 6.52561 92.6264 6.90947 93.0118C7.29332 93.3732 7.60041 93.7827 7.80514 94.2404C8.00986 94.6981 8.11222 95.18 8.11222 95.6859C8.11222 95.9508 7.88191 96.1677 7.60041 96.1677H6.70474C6.42325 96.1677 6.19293 95.9508 6.19293 95.6859C6.19293 95.3968 6.14175 95.1318 6.03939 94.915C5.93703 94.6741 5.78348 94.4572 5.57876 94.2645C5.37403 94.0718 5.14372 93.9272 4.88781 93.8309C4.63191 93.7345 4.35041 93.6863 4.06891 93.6863C3.78742 93.6863 3.50592 93.7345 3.25002 93.8309C2.99411 93.9272 2.7638 94.0718 2.55907 94.2645C2.35435 94.4572 2.2008 94.6741 2.09844 94.915C1.99608 95.1559 1.9449 95.3968 1.9449 95.6859V102.359C1.9449 102.648 1.99608 102.913 2.09844 103.13C2.2008 103.371 2.35435 103.588 2.58466 103.78C2.78939 103.973 3.0197 104.142 3.27561 104.238C3.53151 104.334 3.78742 104.383 4.09451 104.383C4.40159 104.383 4.6575 104.334 4.9134 104.238C5.16931 104.142 5.39962 103.997 5.60435 103.78C5.80907 103.588 5.96262 103.371 6.09057 103.13C6.19293 102.889 6.24411 102.624 6.24411 102.359V100.359H4.1201C3.8386 100.359 3.60828 100.143 3.60828 99.8776V99.0344C3.60828 98.7694 3.8386 98.5526 4.1201 98.5526H4.06891ZM18.8347 93.6623H13.1536V98.0949H17.0689C17.3504 98.0949 17.5807 98.3117 17.5807 98.5767V99.4199C17.5807 99.6849 17.3504 99.9017 17.0689 99.9017H13.1536V104.383H18.8347C19.1162 104.383 19.3465 104.599 19.3465 104.864V105.707C19.3465 105.972 19.1162 106.189 18.8347 106.189H11.7461C11.4646 106.189 11.2343 105.972 11.2343 105.707V92.3614C11.2343 92.0964 11.4646 91.8796 11.7461 91.8796H18.8347C19.1162 91.8796 19.3465 92.0964 19.3465 92.3614V93.2045C19.3465 93.4695 19.1162 93.6863 18.8347 93.6863V93.6623ZM31.6299 91.8796H32.5256C32.8071 91.8796 33.0374 92.0964 33.0374 92.3614V105.707C33.0374 105.972 32.8071 106.189 32.5256 106.189C32.3465 106.189 32.1929 106.093 32.0906 105.972L24.3878 96.2881V105.707C24.3878 105.972 24.1575 106.189 23.876 106.189H22.9803C22.6988 106.189 22.4685 105.972 22.4685 105.707V92.3614C22.4685 92.0964 22.6988 91.8796 22.9803 91.8796C23.1595 91.8796 23.313 91.9759 23.4154 92.0964L31.1181 101.757V92.3614C31.1181 92.0964 31.3484 91.8796 31.6299 91.8796ZM43.7599 93.6623H38.0788V98.0949H41.9941C42.2756 98.0949 42.5059 98.3117 42.5059 98.5767V99.4199C42.5059 99.6849 42.2756 99.9017 41.9941 99.9017H38.0788V105.683C38.0788 105.948 37.8484 106.165 37.567 106.165H36.6713C36.3898 106.165 36.1595 105.948 36.1595 105.683V92.3373C36.1595 92.0723 36.3898 91.8555 36.6713 91.8555H43.7599C44.0414 91.8555 44.2717 92.0723 44.2717 92.3373V93.1804C44.2717 93.4454 44.0414 93.6623 43.7599 93.6623ZM55.0197 93.6623H52.4351V104.358H55.0197C55.3012 104.358 55.5315 104.575 55.5315 104.84V105.683C55.5315 105.948 55.3012 106.165 55.0197 106.165H47.9311C47.6496 106.165 47.4193 105.948 47.4193 105.683V104.84C47.4193 104.575 47.6496 104.358 47.9311 104.358H50.5158V93.6623H47.9311C47.6496 93.6623 47.4193 93.4454 47.4193 93.1804V92.3373C47.4193 92.0723 47.6496 91.8555 47.9311 91.8555H55.0197C55.3012 91.8555 55.5315 92.0723 55.5315 92.3373V93.1804C55.5315 93.4454 55.3012 93.6623 55.0197 93.6623ZM59.1654 91.8796H66.254C66.5355 91.8796 66.7658 92.0964 66.7658 92.3614V93.2045C66.7658 93.4695 66.5355 93.6863 66.254 93.6863H63.6693V105.707C63.6693 105.972 63.439 106.189 63.1575 106.189H62.2618C61.9803 106.189 61.75 105.972 61.75 105.707V93.6863H59.1654C58.8839 93.6863 58.6536 93.4695 58.6536 93.2045V92.3614C58.6536 92.0964 58.8839 91.8796 59.1654 91.8796ZM71.0906 92.9877C71.4744 92.6264 71.9095 92.3373 72.3957 92.1446C72.8819 91.9518 73.3937 91.8555 73.9567 91.8555C74.5197 91.8555 75.0315 91.9518 75.5177 92.1446C76.004 92.3373 76.439 92.6023 76.8229 92.9877C77.2067 93.3491 77.5138 93.7586 77.7185 94.2163C77.9233 94.6741 78.0256 95.1559 78.0256 95.6618V102.335C78.0256 102.865 77.9233 103.347 77.7185 103.804C77.5138 104.262 77.2323 104.672 76.8229 105.033C76.439 105.394 76.004 105.683 75.5177 105.876C75.0315 106.069 74.5197 106.165 73.9823 106.165C73.4705 106.165 72.9843 106.093 72.5492 105.924C72.0886 105.756 71.6792 105.515 71.2953 105.202C71.2953 105.202 71.2953 105.202 71.2697 105.177C70.9114 104.864 70.6044 104.527 70.374 104.118C70.1693 103.756 70.0414 103.395 69.9646 102.985C69.939 102.913 69.9134 102.841 69.9134 102.768V95.6618C69.9134 95.1318 70.0158 94.65 70.2205 94.2163C70.4252 93.7586 70.7067 93.3491 71.1162 92.9877H71.0906ZM76.1063 102.359V95.6859C76.1063 95.3968 76.0551 95.1318 75.9528 94.915C75.8504 94.6741 75.6969 94.4572 75.4921 94.2645C75.2874 94.0718 75.0571 93.9272 74.8012 93.8309C74.5453 93.7345 74.2638 93.6863 73.9823 93.6863C73.7008 93.6863 73.4193 93.7345 73.1634 93.8309C72.9075 93.9272 72.6772 94.0718 72.4725 94.2645C72.2677 94.4572 72.1142 94.6741 72.0118 94.915C71.9095 95.1559 71.8583 95.3968 71.8583 95.6859V102.359C71.8583 102.648 71.9095 102.913 72.0118 103.13C72.1142 103.371 72.2677 103.588 72.4981 103.78C72.7028 103.973 72.9331 104.142 73.189 104.238C73.4449 104.334 73.7008 104.383 74.0079 104.383C74.315 104.383 74.5709 104.334 74.8268 104.238C75.0827 104.142 75.313 103.997 75.5177 103.78C75.7225 103.588 75.876 103.371 76.004 103.13C76.1063 102.889 76.1575 102.624 76.1575 102.359H76.1063Z" fill="#231F20"/>
</g>
<defs>
<linearGradient id="paint0_linear_0_466" x1="39" y1="0.000652963" x2="39" y2="72.4889" gradientUnits="userSpaceOnUse">
<stop stop-color="#1C75BC"/>
<stop offset="0.05" stop-color="#1C75BC"/>
<stop offset="0.37" stop-color="#1C75BC"/>
<stop offset="0.42" stop-color="#237DC1"/>
<stop offset="0.51" stop-color="#3793CF"/>
<stop offset="0.61" stop-color="#57B6E6"/>
<stop offset="0.67" stop-color="#6DCFF6"/>
<stop offset="0.73" stop-color="#68C9F2"/>
<stop offset="0.81" stop-color="#59B9E8"/>
<stop offset="0.89" stop-color="#429FD7"/>
<stop offset="0.99" stop-color="#217BBF"/>
<stop offset="1" stop-color="#1C75BC"/>
</linearGradient>
<clipPath id="clip0_0_466">
<rect width="78" height="106.167" fill="white"/>
</clipPath>
</defs>
</svg>
