<svg width="18" height="18" viewBox="0 0 18 18" fill="none" xmlns="http://www.w3.org/2000/svg">
<path d="M10.2494 1.46387V5.85668C10.2493 6.1023 10.311 6.344 10.4288 6.55953L14.4629 13.9394C14.5849 14.1625 14.6467 14.4134 14.6424 14.6676C14.638 14.9218 14.5675 15.1704 14.4378 15.3891C14.3082 15.6077 14.1238 15.7889 13.9029 15.9147C13.682 16.0405 13.4322 16.1066 13.178 16.1066H4.39234C4.13813 16.1066 3.88828 16.0405 3.66738 15.9147C3.44647 15.7889 3.26213 15.6077 3.13248 15.3891C3.00283 15.1704 2.93234 14.9218 2.92795 14.6676C2.92356 14.4134 2.98542 14.1625 3.10745 13.9394L7.14151 6.55953C7.2593 6.344 7.32099 6.1023 7.32088 5.85668V1.46387" stroke="#4A6FA5" stroke-width="1.0" stroke-linecap="round" stroke-linejoin="round"/>
<path d="M4.72461 10.9814H12.8469" stroke="#4A6FA5" stroke-width="1.0" stroke-linecap="round" stroke-linejoin="round"/>
<path d="M6.22266 1.46387H11.3476" stroke="#4A6FA5" stroke-width="1.0" stroke-linecap="round" stroke-linejoin="round"/>
</svg>
