<svg width="18" height="18" viewBox="0 0 18 18" fill="none" xmlns="http://www.w3.org/2000/svg">
<path d="M10.2505 13.1776V4.392C10.2505 4.00366 10.0962 3.63121 9.82159 3.35661C9.54699 3.08201 9.17454 2.92773 8.78619 2.92773H2.92911C2.54077 2.92773 2.16832 3.08201 1.89372 3.35661C1.61911 3.63121 1.46484 4.00366 1.46484 4.392V12.4455C1.46484 12.6397 1.54198 12.8259 1.67928 12.9632C1.81658 13.1005 2.0028 13.1776 2.19698 13.1776H3.66125" stroke="#4A6FA5" stroke-width="1.46427" stroke-linecap="round" stroke-linejoin="round"/>
<path d="M10.9827 13.1787H6.58984" stroke="#4A6FA5" stroke-width="1.46427" stroke-linecap="round" stroke-linejoin="round"/>
<path d="M13.9107 13.1788H15.3749C15.5691 13.1788 15.7553 13.1016 15.8926 12.9643C16.0299 12.827 16.1071 12.6408 16.1071 12.4466V9.77434C16.1068 9.6082 16.05 9.44709 15.946 9.31749L13.3982 6.1327C13.3297 6.04696 13.2428 5.9777 13.144 5.93005C13.0451 5.8824 12.9368 5.85758 12.8271 5.85742H10.25" stroke="#4A6FA5" stroke-width="1.46427" stroke-linecap="round" stroke-linejoin="round"/>
<path d="M12.4467 14.6424C13.2554 14.6424 13.911 13.9868 13.911 13.1781C13.911 12.3694 13.2554 11.7139 12.4467 11.7139C11.638 11.7139 10.9824 12.3694 10.9824 13.1781C10.9824 13.9868 11.638 14.6424 12.4467 14.6424Z" stroke="#4A6FA5" stroke-width="1.46427" stroke-linecap="round" stroke-linejoin="round"/>
<path d="M5.12443 14.6424C5.93312 14.6424 6.5887 13.9868 6.5887 13.1781C6.5887 12.3694 5.93312 11.7139 5.12443 11.7139C4.31573 11.7139 3.66016 12.3694 3.66016 13.1781C3.66016 13.9868 4.31573 14.6424 5.12443 14.6424Z" stroke="#4A6FA5" stroke-width="1.46427" stroke-linecap="round" stroke-linejoin="round"/>
</svg>
