<svg width="44" height="44" viewBox="0 0 44 44" fill="none" xmlns="http://www.w3.org/2000/svg">
<path d="M25.666 32.9997V10.9997C25.666 10.0272 25.2797 9.09458 24.5921 8.40695C23.9044 7.71932 22.9718 7.33301 21.9993 7.33301H7.33268C6.36022 7.33301 5.42759 7.71932 4.73996 8.40695C4.05232 9.09458 3.66602 10.0272 3.66602 10.9997V31.1663C3.66602 31.6526 3.85917 32.1189 4.20299 32.4627C4.5468 32.8065 5.01312 32.9997 5.49935 32.9997H9.16602" stroke="#4A6FA5" stroke-width="1.2" stroke-linecap="round" stroke-linejoin="round"/>
<path d="M27.5 33H16.5" stroke="#4A6FA5" stroke-width="1.2" stroke-linecap="round" stroke-linejoin="round"/>
<path d="M34.8327 33.0003H38.4993C38.9856 33.0003 39.4519 32.8072 39.7957 32.4634C40.1395 32.1195 40.3327 31.6532 40.3327 31.167V24.4753C40.3319 24.0593 40.1897 23.6558 39.9294 23.3313L33.5493 15.3563C33.3779 15.1416 33.1603 14.9682 32.9128 14.8489C32.6653 14.7295 32.3941 14.6674 32.1193 14.667H25.666" stroke="#4A6FA5" stroke-width="1.2" stroke-linecap="round" stroke-linejoin="round"/>
<path d="M31.1667 36.6663C33.1917 36.6663 34.8333 35.0247 34.8333 32.9997C34.8333 30.9746 33.1917 29.333 31.1667 29.333C29.1416 29.333 27.5 30.9746 27.5 32.9997C27.5 35.0247 29.1416 36.6663 31.1667 36.6663Z" stroke="#4A6FA5" stroke-width="1.2" stroke-linecap="round" stroke-linejoin="round"/>
<path d="M12.8327 36.6663C14.8577 36.6663 16.4993 35.0247 16.4993 32.9997C16.4993 30.9746 14.8577 29.333 12.8327 29.333C10.8076 29.333 9.16602 30.9746 9.16602 32.9997C9.16602 35.0247 10.8076 36.6663 12.8327 36.6663Z" stroke="#4A6FA5" stroke-width="1.2" stroke-linecap="round" stroke-linejoin="round"/>
</svg>
