<svg width="18" height="18" viewBox="0 0 18 18" fill="none" xmlns="http://www.w3.org/2000/svg">
<path d="M14.6419 9.51768C14.6419 13.1784 12.0794 15.0087 9.03374 16.0703C8.87425 16.1243 8.70101 16.1217 8.54321 16.063C5.49021 15.0087 2.92773 13.1784 2.92773 9.51768V4.39274C2.92773 4.19856 3.00487 4.01234 3.14217 3.87504C3.27947 3.73774 3.4657 3.6606 3.65987 3.6606C5.12414 3.6606 6.95448 2.78204 8.22839 1.66919C8.3835 1.53668 8.58081 1.46387 8.78481 1.46387C8.98882 1.46387 9.18613 1.53668 9.34124 1.66919C10.6225 2.78936 12.4455 3.6606 13.9098 3.6606C14.1039 3.6606 14.2902 3.73774 14.4275 3.87504C14.5648 4.01234 14.6419 4.19856 14.6419 4.39274V9.51768Z" stroke="#4A6FA5" stroke-width="1.0" stroke-linecap="round" stroke-linejoin="round"/>
<path d="M6.58984 8.78556L8.05411 10.2498L10.9827 7.32129" stroke="#4A6FA5" stroke-width="1.0" stroke-linecap="round" stroke-linejoin="round"/>
</svg>
