<svg width="95" height="29" viewBox="0 0 95 29" fill="none" xmlns="http://www.w3.org/2000/svg">
<g>
<path fill-rule="evenodd" clip-rule="evenodd" d="M7.29173 28.9292H9.48243V17.3617H7.29173V28.9292ZM15.3137 28.7511H17.2716V21.4481L25.5158 28.9187V17.5189H23.5579V24.6962L15.3031 17.3512V28.7511H15.3137ZM29.9924 25.9535C31.0613 26.7813 32.3419 27.2528 33.7071 27.2528C35.0723 27.2528 35.9824 26.8022 35.9824 25.7859C35.9824 24.9057 35.3792 24.5704 34.3421 24.1828L32.6488 23.596C31.0825 23.0512 29.8972 22.2444 29.8972 20.4003C29.8972 18.4305 31.6963 17.3512 33.8447 17.3512C35.1675 17.3512 36.3634 17.6761 37.3053 18.2628V20.2222C36.3317 19.5097 35.2628 19.0172 33.887 19.0172C32.7017 19.0172 31.8233 19.4573 31.8233 20.3688C31.8233 21.1966 32.3736 21.5214 33.3578 21.8462L35.2522 22.5063C37.0831 23.1455 37.9191 24.1304 37.9191 25.7544C37.9191 27.7976 36.0988 28.9292 33.7177 28.9292C32.1514 28.9292 30.8179 28.4996 30.003 27.9443V25.9535H29.9924ZM43.0096 28.9292H45.2003V17.3617H43.0096V28.9292ZM55.4659 27.1794C57.9317 27.1794 59.244 25.6182 59.244 23.1455C59.244 20.6727 57.9211 19.0906 55.4659 19.0906H53.0318V27.1794H55.4659ZM51.0316 17.3617H55.5294C58.99 17.3617 61.2336 19.6249 61.2336 23.1455C61.2336 26.666 58.99 28.9292 55.5294 28.9292H51.0316V17.3617ZM72.1765 17.3617V19.0906H66.885V21.8776H71.6368V23.5855H66.885V27.1794H72.1765V28.9292H64.8848V17.3617H72.1765ZM79.9445 22.6006H82.114C83.3946 22.6006 84.1248 21.8986 84.1248 20.8299C84.1248 19.7611 83.4052 19.0591 82.114 19.0591H79.9445V22.6006ZM79.9445 24.2352V28.9292H78.0184V17.3617H82.1564C84.5164 17.3617 86.0403 18.5667 86.0403 20.8299C86.0403 22.7683 85.1937 23.8789 83.384 24.1618L87.4902 28.9292H85.2889L81.3097 24.2352H79.9339H79.9445ZM6.52975 5.96187C7.38698 5.64753 8.05371 4.72549 8.05371 3.4472C8.04313 1.30973 6.52975 0.199078 4.09565 0.199078H0V12.1019H4.46605C6.90016 12.1019 8.42412 10.9179 8.42412 8.6861C8.42412 7.42876 7.63039 6.31811 6.51917 5.95139L6.52975 5.96187ZM1.92612 5.19699V1.94887H4.07448C5.42911 1.94887 6.14876 2.43085 6.14876 3.55197C6.14876 4.6731 5.42911 5.19699 4.07448 5.19699H1.92612ZM1.92612 6.87344H4.43431C5.76777 6.87344 6.48742 7.53354 6.48742 8.61275C6.48742 9.69197 5.76777 10.3625 4.43431 10.3625H1.92612V6.87344ZM17.3562 12.2905C20.1502 12.2905 22.0339 10.6245 22.0339 7.36589V0.199078H20.0549V7.13538C20.0549 9.41954 19.1024 10.4883 17.3562 10.4883C15.61 10.4883 14.6575 9.41954 14.6575 7.13538V0.199078H12.6785V7.34494C12.6785 10.6245 14.5835 12.2905 17.3562 12.2905ZM26.6905 11.2427C27.5054 11.8294 28.8389 12.2905 30.4052 12.2905C32.7863 12.2905 34.5855 11.0855 34.5855 8.91661C34.5855 7.18777 33.7494 6.13999 31.9185 5.46941L30.0347 4.7674C29.0611 4.42163 28.5108 4.06539 28.5108 3.19573C28.5108 2.23177 29.3892 1.76027 30.5639 1.76027C31.9291 1.76027 32.998 2.28416 33.9716 3.03856V0.974435C33.0509 0.356245 31.8445 0 30.5322 0C28.3838 0 26.5952 1.14208 26.5952 3.23764C26.5952 5.19699 27.77 6.04569 29.3363 6.63245L31.0296 7.25064C32.0773 7.65927 32.6699 8.026 32.6699 8.95852C32.6699 10.0273 31.7386 10.5092 30.4052 10.5092C29.0717 10.5092 27.7594 10.0063 26.6905 9.13664V11.2532V11.2427ZM41.655 0.199078H39.6759V12.1019H41.655V0.199078ZM47.3063 12.0809H49.2113V4.33781L57.2332 12.259V0.1886H55.3283V7.79548L47.2957 0V12.0809H47.3063ZM69.5943 0.199078V1.9803H64.4615V4.84074H69.0651V6.60101H64.4615V10.2892H69.5943V12.0914H62.5142V0.199078H69.5943ZM74.2085 11.2427C75.0234 11.8294 76.3568 12.2905 77.9231 12.2905C80.3043 12.2905 82.1034 11.0855 82.1034 8.91661C82.1034 7.18777 81.2674 6.15047 79.4365 5.46941L77.5527 4.7674C76.5791 4.42163 76.0288 4.06539 76.0288 3.19573C76.0288 2.23177 76.9072 1.76027 78.0819 1.76027C79.4471 1.76027 80.516 2.28416 81.4896 3.03856V0.963958C80.5583 0.345767 79.3624 0 78.0501 0C75.9018 0 74.1132 1.14208 74.1132 3.23764C74.1132 5.19699 75.2879 6.04569 76.8542 6.63245L78.5475 7.25064C79.5953 7.65927 80.1879 8.026 80.1879 8.95852C80.1879 10.0273 79.2566 10.5092 77.9231 10.5092C76.5897 10.5092 75.2774 10.0063 74.2191 9.13664V11.2532L74.2085 11.2427ZM86.1568 11.2427C86.9717 11.8294 88.3051 12.2905 89.8714 12.2905C92.2526 12.2905 94.0517 11.0855 94.0517 8.91661C94.0517 7.18777 93.2157 6.15047 91.3848 5.46941L89.501 4.7674C88.5274 4.42163 87.977 4.06539 87.977 3.19573C87.977 2.23177 88.8554 1.76027 90.0302 1.76027C91.3954 1.76027 92.4643 2.28416 93.4379 3.03856V0.963958C92.5066 0.345767 91.3107 0 89.9984 0C87.8501 0 86.0615 1.14208 86.0615 3.23764C86.0615 5.19699 87.2362 6.04569 88.8025 6.63245L90.4958 7.25064C91.5435 7.65927 92.1362 8.026 92.1362 8.95852C92.1362 10.0273 91.2049 10.5092 89.8714 10.5092C88.5379 10.5092 87.2257 10.0063 86.1568 9.13664V11.2532V11.2427Z" fill="#111111"/>
</g>

</svg>
