<svg width="92" height="28" viewBox="0 0 92 28" fill="none" xmlns="http://www.w3.org/2000/svg">
<g clip-path="url(#clip0_129_568)">
<path d="M83.4618 0.194244H80.6699V21.9426H83.4618V0.194244Z" fill="#011111"/>
<path d="M88.1435 0.194244H85.3516V21.9426H88.1435V0.194244Z" fill="#011111"/>
<path d="M47.2643 26.8202C45.0392 26.8202 42.7826 25.9204 41.3867 24.5094L41.2188 24.3151L43.2025 22.2497L43.4019 22.4439C43.4019 22.4439 44.9868 23.9061 47.1909 23.9061C49.1956 23.9061 50.5076 22.8427 50.5076 21.217C50.5076 19.5912 49.1956 18.3949 47.4113 18.3949C45.627 18.3949 44.5984 19.3765 44.2101 19.7752L44.0106 19.99L42.0584 17.9041L42.2263 17.7098C42.5622 17.352 43.087 16.8918 43.6748 16.5442C42.3943 15.5422 41.6701 13.7732 41.6701 11.6874C41.6701 8.04732 43.6748 5.84897 47.0439 5.84897C47.6317 5.84897 48.1565 5.93077 48.6603 5.98189C49.1641 6.03302 49.6889 6.11482 50.2767 6.11482C51.3892 6.11482 52.1764 5.92054 52.1764 5.92054L52.4598 5.86942L53.0475 8.34384L52.7956 8.42564C52.7956 8.42564 52.2709 8.58924 51.4837 8.61991C52.1764 9.54015 52.5437 10.8183 52.5437 12.1986C52.5437 14.0698 51.8195 15.6751 50.56 16.5646C52.4808 17.4031 53.6563 19.2027 53.6563 21.401C53.6878 24.5809 51.0323 26.7997 47.2748 26.7997L47.2643 26.8202ZM47.0124 8.60969C45.7005 8.60969 44.8083 9.96959 44.8083 12.035C44.8083 14.5912 45.9839 15.5115 47.0124 15.5115C48.3769 15.5115 49.2376 14.1822 49.2376 12.0657C49.2376 9.94914 48.3979 8.61991 47.0124 8.61991V8.60969Z" fill="#011111"/>
<path d="M47.0114 6.16549C48.1554 6.16549 49.0686 6.44156 50.2441 6.44156C51.4196 6.44156 52.2278 6.24729 52.2278 6.24729L52.7001 8.23091C52.7001 8.23091 52.1439 8.42519 51.3042 8.42519C51.1677 8.42519 51.0208 8.42519 50.8844 8.39451C51.724 9.23295 52.2803 10.6235 52.2803 12.28C52.2803 14.3147 51.3882 15.9405 49.9712 16.7073C51.9759 17.3617 53.4034 19.1204 53.4034 21.4824C53.4034 24.6827 50.643 26.5846 47.2738 26.5846C44.9017 26.5846 42.8131 25.603 41.6165 24.3555L43.2014 22.6684C43.2014 22.6684 44.8492 24.2124 47.1898 24.2124C49.226 24.2124 50.7794 23.1797 50.7794 21.2574C50.7794 19.3351 49.331 18.1593 47.4102 18.1593C45.8464 18.1593 44.6813 18.9159 44.0096 19.6214L42.4457 17.9343C42.8341 17.5253 43.5058 16.9527 44.1985 16.6051C42.7501 15.7053 41.9419 13.8341 41.9419 11.7483C41.9419 8.32294 43.6947 6.15526 47.0114 6.15526M47.0114 15.7462C48.5753 15.7462 49.5199 14.3045 49.5199 12.0243C49.5199 9.7442 48.5123 8.30249 47.0114 8.30249C45.5105 8.30249 44.5344 9.71352 44.5344 11.9937C44.5659 14.601 45.7624 15.736 47.0114 15.736M44.9752 16.2881H45.0067C45.0067 16.2881 45.0067 16.2574 44.9752 16.2881ZM52.6372 5.5929L52.1124 5.70537C52.1124 5.70537 51.3357 5.86897 50.2756 5.86897C49.7193 5.86897 49.2155 5.81784 48.6907 5.73604C48.1659 5.65425 47.6306 5.60312 47.0429 5.60312C43.5058 5.60312 41.3856 7.88327 41.3856 11.7074C41.3856 13.7114 42.0574 15.4497 43.2224 16.5437C42.7501 16.8709 42.3303 17.2493 42.0259 17.5458L41.6585 17.9036L41.9944 18.282L43.5583 19.9691L43.9781 20.3985L44.3979 19.9691C44.7653 19.5908 45.7939 18.6705 47.4102 18.6705C49.0266 18.6705 50.2231 19.7339 50.2231 21.2267C50.2231 23.0161 48.6592 23.6398 47.1898 23.6398C45.1011 23.6398 43.6212 22.2594 43.6002 22.2288L43.1804 21.8505L42.7921 22.2594L41.2072 23.9466L40.8398 24.3249L41.2072 24.7032C42.6556 26.196 44.9647 27.0958 47.2843 27.0958C51.2097 27.0958 53.9701 24.785 53.9701 21.4517C53.9701 19.3045 52.91 17.5151 51.1048 16.5642C52.2173 15.5826 52.8576 14.0386 52.8576 12.2493C52.8576 11.0019 52.5532 9.83622 51.9969 8.90576C52.5217 8.85463 52.8891 8.74216 52.8891 8.74216L53.3614 8.57856L53.2459 8.08777L52.7736 6.10414L52.6581 5.61335L52.6372 5.5929ZM47.0114 15.2043C45.8359 15.2043 45.0907 13.9568 45.0907 12.0039C45.0907 10.0509 45.8673 8.85463 47.0114 8.85463C48.1554 8.85463 48.9636 10.0714 48.9636 12.0346C48.9636 13.5785 48.4598 15.2145 47.0114 15.2145V15.2043Z" fill="white"/>
<path d="M18.7248 19.6012C18.137 19.4887 17.7802 19.1717 17.7802 18.1595V11.5849C17.7802 7.45401 16.3003 5.99185 12.9836 5.99185C10.9789 5.99185 9.49897 6.80984 9.49897 6.80984L9.55145 9.00819C9.55145 9.00819 11.1363 8.272 12.5638 8.272C14.4845 8.272 15.2402 9.51943 15.2402 11.227V12.3722C14.5999 11.4519 13.4244 11.0941 12.3748 11.0941C10.0028 11.1247 8.08203 12.9959 8.08203 16.6053C8.08203 20.2147 10.1707 22.2494 12.5113 22.2494C13.4874 22.2494 14.8204 21.7382 15.6915 20.3169C15.9119 21.186 16.5837 22.0245 18.2525 22.0245C19.1761 22.0245 19.6694 21.8915 19.6694 21.8915V19.6114C19.6694 19.6114 19.3336 19.7239 18.7248 19.5807M12.9626 20.0102C11.8185 20.0102 10.8424 19.1717 10.8424 16.6462C10.8424 14.4989 11.5666 13.2822 12.8996 13.2822C14.348 13.2822 15.2402 14.6932 15.2402 16.6257C15.2717 18.364 14.2326 20.0204 12.9521 20.0204" fill="#011111"/>
<path d="M23.1326 3.31287L20.3407 4.15131V6.43145H18.6719V8.92632H20.3722V18.1287C20.3722 20.9201 21.6002 22.096 24.0247 22.096C24.3921 22.096 24.6125 22.0653 24.9694 21.9324V19.6522C24.749 19.7033 24.665 19.7033 24.4656 19.7033C23.353 19.7033 23.1326 19.3762 23.1326 17.8322V8.89565H24.9694V6.40078H23.1326V3.30264V3.31287Z" fill="#011111"/>
<path d="M29.0946 6.43143H26.3027V21.9323H29.0946V6.43143Z" fill="#011111"/>
<path d="M36.9253 6.00208C35.8337 6.00208 34.4692 6.57467 33.4931 8.03683V6.43152H30.9531V21.9324H33.745V11.9121C33.745 10.1227 35.1934 8.3538 36.5054 8.3538C37.597 8.3538 37.9224 9.11044 37.9224 10.4397V21.8915H40.7142V10.3272C40.7142 8.80369 40.3784 7.85278 39.7066 7.12681C39.0664 6.39062 38.0378 5.98163 36.9148 5.98163" fill="#011111"/>
<path d="M67.9077 0.194273L64.9269 14.4375L62.2819 0H60.1408L57.4643 14.4171L54.3681 0.194273H51.5762L56.7086 22.1778H58.3565L61.2218 7.11651L64.0137 22.1778H65.6826L70.8045 0.194273H67.9077Z" fill="#011111"/>
<path d="M74.7416 19.8668C73.1567 19.8668 72.0966 18.1797 72.0966 15.603V14.9793H79.1498C79.1813 14.0591 79.2023 13.7626 79.2023 13.2922C79.2023 8.78306 77.8378 6.01212 74.5211 6.01212C71.2045 6.01212 69.4727 9.02845 69.4727 14.2125C69.4727 19.3965 71.6138 22.2799 74.6786 22.2799C76.7987 22.2799 78.3311 21.0018 79.2233 18.8034L77.2396 17.7196C76.5678 18.9159 75.9066 19.8668 74.7311 19.8668M74.4897 8.25136C75.8541 8.25136 76.5468 9.69307 76.5468 12.6992H72.1701C72.1701 9.60105 73.1987 8.25136 74.4792 8.25136" fill="#011111"/>
<path d="M0 21.9327H7.7984V19.2436H2.84437V12.0248H7.13716V9.36635H2.84437V2.85311H7.86138V0.194641H0V21.9327Z" fill="#011111"/>
<path d="M90.3157 20.143C89.7279 20.143 89.2871 20.5724 89.2871 21.145C89.2871 21.7176 89.7279 22.1471 90.3157 22.1471C90.9035 22.1471 91.3443 21.7176 91.3443 21.145C91.3443 20.552 90.9035 20.143 90.3157 20.143ZM90.3157 21.963C89.8119 21.963 89.455 21.6052 89.455 21.1246C89.455 20.644 89.8224 20.2862 90.3157 20.2862C90.809 20.2862 91.1764 20.644 91.1764 21.1246C91.1764 21.6052 90.809 21.963 90.3157 21.963Z" fill="black"/>
<path d="M90.4742 20.9817C90.4742 20.7668 90.3587 20.6542 90.2221 20.6542H89.8965V21.6366H90.054V21.2784H90.1276L90.3376 21.6366H90.5057V21.6059L90.2956 21.3091C90.3902 21.2273 90.4637 21.1454 90.4637 20.9817M90.2221 21.1249H90.0645V20.8282H90.2221C90.2746 20.8282 90.3376 20.8794 90.3376 20.9919C90.3166 21.0738 90.2851 21.1249 90.2221 21.1249Z" fill="#011111"/>
</g>
<defs>
<clipPath id="clip0_129_568">

</clipPath>
</defs>
</svg>
