<svg width="97" height="25" viewBox="0 0 97 25" fill="none" xmlns="http://www.w3.org/2000/svg">
<g clip-path="url(#clip0_129_563)">
<path d="M54.8499 8.11528C54.8499 5.21007 54.9022 2.50855 55.0485 0L47.5742 1.44724V2.14406L48.306 2.24055C48.8391 2.29415 49.1841 2.48711 49.3827 2.78728C49.5813 3.14105 49.7276 3.63419 49.8217 4.39533C49.9158 5.84257 50.0203 9.15515 49.9681 14.3652C49.9681 19.5217 49.9158 22.7807 49.8217 24.035C52.5083 24.6353 54.6095 24.8819 56.167 24.8819C59.094 24.8819 61.3938 24.035 63.0559 22.2768C64.7181 20.5723 65.5962 18.1709 65.5962 15.2121C65.5962 12.8537 64.9585 10.9026 63.6936 9.34812C62.4287 7.79367 60.8084 7.04325 58.9059 7.04325C57.641 7.04325 56.3134 7.39702 54.8499 8.09384V8.11528ZM54.9962 23.5418C54.9022 21.9338 54.7976 17.1311 54.7976 9.26236C55.2367 9.11227 55.8221 9.01579 56.5538 9.01579C57.7246 9.01579 58.655 9.61613 59.3345 10.8704C60.014 12.1247 60.3589 13.6255 60.3589 15.5337C60.3589 17.8922 59.9721 19.7897 59.1881 21.3978C58.4041 22.9522 57.4319 23.7562 56.2089 23.7562C55.8221 23.6597 55.4248 23.6061 54.9858 23.5525L54.9962 23.5418ZM19.5377 0.503855H0V1.50084L1.02445 1.59733C1.80847 1.74741 2.3416 2.04758 2.68657 2.49783C3.03154 3.00169 3.2197 3.79499 3.27197 4.89919C3.65875 10.3129 3.65875 15.3729 3.27197 20.0256C3.17789 21.1297 2.97927 21.9338 2.68657 22.4269C2.3416 22.9308 1.80847 23.2309 1.02445 23.3274L0 23.4775V24.4745H12.5966V23.4775L11.2794 23.381C10.6313 23.3274 10.025 22.9951 9.61728 22.4805C9.27232 21.9767 9.08415 21.1833 9.03189 20.0792C8.88554 18.0745 8.79145 15.7696 8.79145 13.2182L11.4258 13.2718C12.837 13.3254 13.8196 14.4188 14.3109 16.6272H15.2831V8.45833H14.3109C13.8196 10.6131 12.8997 11.7173 11.4258 11.7602L8.79145 11.8138C8.79145 7.30054 8.88554 4.09516 9.03189 2.14406H12.8893C15.6281 2.14406 17.4784 3.94508 18.5551 7.55782L19.7259 7.20405L19.5273 0.493135L19.5377 0.503855ZM17.2379 15.9304C17.2379 18.5354 17.9697 20.6902 19.3914 22.3947C20.8026 24.0993 22.9038 24.9033 25.5485 24.9033C28.1933 24.9033 30.3363 24.0564 31.8938 22.2983C33.4619 20.5937 34.1936 18.4389 34.1936 15.8339C34.1936 13.2289 33.4619 11.0741 32.0402 9.36956C30.6185 7.66503 28.5278 6.861 25.883 6.861C23.2383 6.861 21.0953 7.70791 19.5377 9.46604C17.9697 11.1706 17.2379 13.3254 17.2379 15.9304ZM28.1306 10.2165C28.716 11.6637 28.9564 13.5719 28.9564 15.8768C28.9564 21.1833 27.8797 23.7884 25.7785 23.7884C24.7018 23.7884 23.876 23.038 23.2906 21.5371C22.7052 20.0363 22.4647 18.1281 22.4647 15.8768C22.4647 10.6131 23.5414 8.00808 25.6426 8.00808C26.7193 7.95448 27.5452 8.7049 28.1306 10.2165ZM69.4013 22.3947C71.0111 24.0457 73.06 24.9033 75.5061 24.9033C77.0219 24.9033 78.3391 24.6031 79.5099 23.9492C80.6807 23.3489 81.611 22.5984 82.2487 21.6979L81.7574 21.0976C80.6807 21.9445 79.4576 22.3519 78.0464 22.3519C76.0915 22.3519 74.5758 21.6979 73.5513 20.3472C72.4746 18.9964 71.9833 17.2919 72.0878 15.0835H82.5414C82.5414 12.6821 81.956 10.731 80.7329 9.17659C79.5099 7.67575 77.8059 6.92533 75.6002 6.92533C72.8614 6.92533 70.7602 7.82583 69.2549 9.58396C67.7496 11.3421 67.0074 13.4862 67.0074 16.0483C67.0074 18.6105 67.7914 20.7545 69.4013 22.4055V22.3947ZM73.0182 9.81981C73.5513 8.61914 74.2413 8.0188 75.1716 8.0188C76.6351 8.0188 77.3669 9.92702 77.3669 13.7756L72.1924 13.8721C72.2446 12.3712 72.4851 11.0205 73.0182 9.81981ZM95.6815 7.81511C94.3644 7.21477 92.7023 6.861 90.6952 6.861C88.6881 6.861 87.0364 7.40774 85.8134 8.46905C84.5903 9.53036 83.9526 10.8275 83.9526 12.3712C83.9526 13.722 84.3394 14.7726 85.0712 15.523C85.8029 16.2734 86.9737 16.9274 88.4895 17.4741C89.8589 17.978 90.8311 18.4711 91.3224 18.9214C91.8137 19.4252 92.1064 19.972 92.1064 20.7224C92.1064 21.4192 91.866 22.0731 91.3224 22.577C90.8311 23.1237 90.1516 23.381 89.2735 23.381C87.1201 23.381 85.5102 21.773 84.3917 18.5676L83.5658 18.8142L83.7645 23.8205C85.5207 24.5174 87.4755 24.8711 89.6289 24.8711C91.7823 24.8711 93.5804 24.3673 94.8557 23.3167C96.1206 22.3197 96.7583 20.8617 96.7583 19.0607C96.7583 17.8601 96.4656 16.8523 95.8279 16.1019C95.1902 15.3515 94.1658 14.6976 92.7023 14.0972C91.0924 13.4969 89.9634 12.9501 89.378 12.4463C88.7926 11.9424 88.4999 11.3421 88.4999 10.5917C88.4999 9.84125 88.6985 9.24091 89.1376 8.73706C89.5766 8.2332 90.1098 8.04024 90.7997 8.04024C92.7545 8.04024 94.1658 9.48748 95.0439 12.3498L95.8697 12.1032L95.6711 7.79367L95.6815 7.81511ZM48.6927 7.36486C48.0133 7.01109 47.2815 6.861 46.4452 6.861C45.6089 6.861 44.7831 7.21477 43.8527 7.9116C42.9224 8.60842 42.2429 9.56252 41.6993 10.8704L41.7516 6.861L34.3295 8.36185V9.05867L35.0613 9.11227C35.9916 9.20875 36.5248 9.95918 36.6293 11.3207C36.922 14.4295 36.922 17.7314 36.6293 21.2369C36.5352 22.5877 35.9916 23.2953 35.0613 23.4453L34.3295 23.5418V24.4959H44.689V23.5418L43.3719 23.4453C42.4415 23.3489 41.9084 22.5984 41.8038 21.2369C41.5111 18.3317 41.4589 15.2229 41.7098 12.0175C42.0024 11.5136 42.6401 11.2135 43.6123 11.117C44.5845 11.0205 45.7135 11.3207 46.8843 12.0175L48.6927 7.35414V7.36486Z" fill="#011111"/>
</g>
<defs>
<clipPath id="clip0_129_563">

</clipPath>
</defs>
</svg>
