<svg width="147" height="24" viewBox="0 0 147 24" fill="none" xmlns="http://www.w3.org/2000/svg">
<g>
<path fill-rule="evenodd" clip-rule="evenodd" d="M19.271 19.8809H12.2571V8.8036C12.2571 7.63637 11.4177 6.89254 10.4404 6.89254C9.46302 6.89254 8.3247 7.6707 8.3247 8.8036V19.8809H2.03518V2.24648L0 0.816037C2.32264 0.0378792 6.20903 -1.63287 8.3247 -2.80011V6.44624C9.16407 5.40488 11.2222 4.06599 13.8323 4.06599C17.1323 4.06599 18.5581 6.24026 18.5581 8.83793V18.1873C18.5581 18.4734 18.7996 19.0341 19.271 19.8809ZM91.5487 19.8809H84.5348V8.8036C84.5348 7.63637 83.6954 6.89254 82.7181 6.89254C81.7407 6.89254 80.6024 7.6707 80.6024 8.8036V19.8809H74.3129V2.24648L72.2777 0.816037C74.6003 0.0378792 78.4867 -1.63287 80.6024 -2.80011V6.44624C81.4418 5.40488 83.5 4.06599 86.1101 4.06599C89.4215 4.06599 90.8358 6.24026 90.8358 8.83793V18.1873C90.8358 18.4734 91.0773 19.0341 91.5487 19.8809ZM34.5981 17.2489V18.3475C33.2068 19.5491 31.6546 20.5332 28.3431 20.5332C23.1114 20.5332 19.9149 17.0429 19.9149 12.7402C19.9149 7.61348 23.2034 4.11177 28.0211 4.11177C32.8389 4.11177 34.5981 7.36172 34.5981 11.4585H25.8825C26.2619 16.1732 28.895 18.3246 31.3096 18.3246C32.4709 18.3246 33.7817 17.9355 34.5981 17.2489ZM27.7337 10.5316C29.1365 10.5316 29.2974 10.131 29.2974 8.96381C29.2974 8.07122 29.1365 5.86262 27.7337 5.86262C26.3309 5.86262 26.1699 8.07122 26.1699 8.96381C26.1699 10.131 26.3309 10.5316 27.7337 10.5316ZM146.533 17.2489V18.3475C145.142 19.5491 143.59 20.5332 140.278 20.5332C135.046 20.5332 131.85 17.0429 131.85 12.7402C131.85 7.60204 135.138 4.11177 139.968 4.11177C144.797 4.11177 146.533 7.36172 146.533 11.4585H137.817C138.197 16.1847 140.83 18.3246 143.245 18.3246C144.406 18.3246 145.717 17.9355 146.533 17.2489ZM139.657 10.5201C141.06 10.5201 141.221 10.131 141.221 8.96381C141.221 8.07122 141.06 5.86262 139.657 5.86262C138.254 5.86262 138.093 8.07122 138.093 8.96381C138.093 10.131 138.254 10.5201 139.657 10.5201ZM52.3858 17.1116L53.0872 17.2604C52.7653 18.542 51.8454 20.5332 48.8559 20.5332C46.3608 20.5332 45.6594 19.0112 45.1419 17.3977C44.705 18.8853 43.0033 20.5332 39.7493 20.5332C36.8517 20.5332 35.2535 19.2515 35.2535 16.8369C35.2535 14.1477 37.8866 12.1794 44.4751 10.234V7.4075C44.4751 5.94273 43.6932 5.43921 42.8193 5.43921C42.0374 5.43921 40.7841 6.27459 40.7841 7.59059C40.7841 8.21998 40.8991 8.68917 40.9911 9.31856C40.9911 10.1196 40.0597 11.3555 38.6455 11.3555C37.0817 11.3555 36.3228 10.2226 36.3228 8.90659C36.3228 6.75522 38.3235 4.12321 43.5667 4.12321C48.8099 4.12321 50.7531 6.99553 50.7531 9.74197V17.0315C50.7531 17.4778 50.937 17.9241 51.42 17.9241C51.8454 17.9241 52.1559 17.6838 52.3743 17.1345L52.3858 17.1116ZM44.4981 16.5623V11.1495C42.2904 12.0421 41.5315 14.2393 41.5315 15.9329C41.5315 17.2947 41.957 17.9241 42.9803 17.9241C43.8657 17.9241 44.4981 17.3633 44.4981 16.5623ZM61.4004 19.8809H54.168V2.24648L52.2363 0.816037C54.4325 0.0378792 58.4799 -1.63287 60.4921 -2.80011V18.1873C60.4921 18.4505 60.791 19.0227 61.3889 19.8809H61.4004ZM101.069 19.8809H93.8253V2.24648L91.8936 0.816037C94.1013 0.0378792 98.1487 -1.63287 100.161 -2.80011V18.1873C100.161 18.4505 100.46 19.0227 101.058 19.8809H101.069ZM72.2547 18.05V19.1485C71.1969 20.0526 69.4492 20.5218 67.5634 20.5218C64.4474 20.5218 63.3666 18.2216 63.3666 16.2762V5.9084H61.8603L69.7481 -0.980593V4.69539H72.2432V5.9084H69.7481V17.1574C69.7481 18.05 70.277 18.4734 70.9094 18.4734C71.3004 18.4734 71.9903 18.2903 72.2432 18.0614L72.2547 18.05ZM107.083 3.86001C105.289 3.86001 103.863 2.3838 103.863 0.52995C103.863 -1.3239 105.289 -2.80011 107.083 -2.80011C108.876 -2.80011 110.302 -1.3239 110.302 0.52995C110.302 2.3838 108.876 3.86001 107.083 3.86001ZM111.314 19.8809H103.921V8.76927L101.886 7.32739C104.208 6.54923 108.106 4.87848 110.233 3.71124V18.1758C110.233 18.4505 110.59 19.0227 111.314 19.8695V19.8809ZM131.378 19.8809H124.135V8.76927C124.135 7.60203 123.307 6.85821 122.318 6.85821C121.329 6.85821 120.202 7.63637 120.202 8.76927V19.8809H113.913V8.76927L111.889 7.32739C114.212 6.54923 117.926 4.87848 120.041 3.71124V6.76666C121.088 5.39344 123.1 4.00877 125.71 4.00877C129.01 4.00877 130.436 6.19448 130.436 8.79216V18.1758C130.436 18.4505 130.758 19.0112 131.378 19.8695V19.8809Z" fill="#111111"/>
</g>

</svg>
