<svg width="138" height="28" viewBox="0 0 138 28" fill="none" xmlns="http://www.w3.org/2000/svg">
<g clip-path="url(#clip0_129_555)">
<path d="M13.7061 27.6322L16.1792 3.27586C16.2717 2 16.549 1.81609 16.9997 1.81609H17.2771V0.45977H13.2554V1.82758H13.5328C14.0759 1.82758 14.3533 2.1954 14.2608 3.28735L12.7931 17.8276L11.1521 3.28735C10.9672 2.10345 11.2446 1.82758 11.8802 1.82758H11.9726V0.45977H6.40235V1.82758H6.67971C7.22287 1.82758 7.22287 2.01149 7.31532 3.28735L7.77759 7.01149L6.40235 18.8276L4.93466 3.27586C4.74976 2 5.02712 1.81609 5.57028 1.81609H5.66273V0.45977H0V1.82758H0.277358C0.912971 1.82758 0.912971 2.01149 1.00542 3.28735L3.55943 27.6551H7.21131L8.679 15.1149L10.0542 27.6551H13.7061V27.6322ZM37.2931 11.6322C37.2931 9.90803 37.2931 9.35631 38.391 9.35631C39.1191 9.35631 39.1191 9.63217 39.1191 11.0804V25.6207C39.1191 26.1609 38.9342 26.2528 38.6568 26.2528H38.4719V27.6207H44.0422V26.2528H43.7648C43.395 26.2528 43.3025 26.0689 43.3025 25.5287V10.2529C43.3025 7.71263 42.7594 6.79309 40.2863 6.79309C38.8995 6.64367 37.6051 7.48275 37.1775 8.79309C36.9002 7.42528 36.1721 6.79309 34.2537 6.79309C32.7051 6.79309 31.8731 7.25286 31.2375 8.79309V6.79309L26.3953 7.16091V8.52872H26.5802C26.8575 8.52872 27.1233 8.80459 27.1233 9.52872V25.4367C27.1233 26.0689 26.9384 26.2528 26.5802 26.2528H26.3953V27.6207H31.7922V26.2528H31.6073C31.3299 26.2528 31.2375 26.1609 31.2375 25.7126V11.6207C31.2375 9.89654 31.2375 9.34482 32.2429 9.34482C32.971 9.34482 32.971 9.62068 32.971 11.069V25.6092C32.971 26.1494 32.786 26.2413 32.5087 26.2413H32.2313V27.6092H37.7207V26.2413H37.6283C37.2584 26.2413 37.0851 26.0574 37.0851 25.5172V11.6092H37.27L37.2931 11.6322ZM75.869 27.6322H82.6296V26.2643H82.1674C81.6242 26.2643 81.4393 25.9885 81.4393 24.8046V14.2643H84.9987V24.7241C84.9987 25.908 84.8138 26.1839 84.2707 26.1839H83.7275V27.5517H90.3956V26.1839H89.8525C89.3093 26.1839 89.1244 25.908 89.1244 24.7241V3.27586C89.1244 2 89.2169 1.81609 89.8525 1.81609H90.3956V0.45977H83.7275V1.82758H84.2707C84.8138 1.82758 84.9987 2.01149 84.9987 3.28735V12.7471H81.3468V3.27586C81.3468 2 81.5317 1.81609 82.1674 1.81609H82.6296V0.45977H75.869V1.82758H76.4122C76.9553 1.82758 77.1402 2.01149 77.1402 3.28735V25.4712C77.1402 26.0115 76.9553 26.1954 76.4122 26.1954H75.869V27.6551V27.6322ZM125.493 27.6322H130.797V26.2643H130.613C130.243 26.2643 130.243 26.1724 130.243 25.7241V11.6322C130.243 9.90803 130.243 9.35631 131.341 9.35631C132.161 9.35631 132.161 9.63217 132.161 11.0804V25.6207C132.161 26.1609 131.976 26.2528 131.791 26.2528H131.514V27.6207H137.177V26.2528H136.899C136.53 26.2528 136.437 26.0689 136.437 25.5287V10.2529C136.437 7.71263 135.801 6.79309 133.328 6.79309C131.687 6.79309 130.774 7.25286 130.127 8.79309V0L125.008 0.45977V1.82758H125.551C125.921 1.82758 126.094 2.01149 126.094 2.82758V25.4597C126.094 26.0919 126.001 26.2758 125.551 26.2758H125.366V27.6436H125.458L125.493 27.6322ZM21.0214 27.908C25.5054 27.908 26.141 24.1839 26.141 17.3678C26.141 10.5517 25.5054 6.82758 21.0214 6.82758C16.5375 6.82758 15.9019 10.4598 15.9019 17.3678C15.9019 24.2758 16.5375 27.908 21.0214 27.908ZM54.2929 27.6322H59.6898V26.2643H59.4124C59.1351 26.2643 59.1351 26.1724 59.1351 25.7241V11.6322C59.1351 9.90803 59.1351 9.35631 60.2329 9.35631C60.961 9.35631 61.0535 9.63217 61.0535 11.0804V25.6207C61.0535 26.1609 60.8686 26.2528 60.5912 26.2528H60.3138V27.6207H65.9881V26.2528H65.8032C65.4334 26.2528 65.341 26.0689 65.341 25.5287V10.2529C65.341 7.71263 64.7978 6.79309 62.2322 6.79309C60.6837 6.79309 59.6782 7.25286 59.1235 8.79309V6.79309L53.9115 7.16091V8.52872H54.4547C54.732 8.52872 54.9978 8.80459 54.9978 9.52872V25.4367C54.9978 26.0689 54.8129 26.2528 54.4547 26.2528H54.2697V27.6207L54.2929 27.6322ZM103.108 28C104.934 28 105.662 27.0919 106.032 26C106.402 27.6322 106.76 28 108.863 28C111.336 28 111.602 26.5402 111.602 23.7241H110.412C110.412 25.8161 110.412 26 109.949 26C109.58 26 109.58 25.8161 109.58 24.6322V11.0919C109.58 8.36781 108.667 6.90804 105.465 6.90804C102.911 6.90804 100.438 7.63217 100.531 10.4483C100.623 11.7241 101.074 12.9885 102.449 12.908C103.639 12.8161 104.183 12.1839 104.183 11.1839C104.079 10.2184 103.582 9.33332 102.807 8.72413C103.327 8.49424 103.894 8.40229 104.448 8.44827C105.361 8.44827 105.546 9.1724 105.546 10.4483V14.2643C100.889 15.8046 99.9761 16.4483 99.9761 22.2643C99.9761 26.3563 101.074 28 103.085 28H103.108ZM95.1454 28C98.6239 28 99.4445 27 99.2595 21.2758H97.7919C97.7919 25.8161 97.607 26.0919 96.0584 26.0919C94.14 26.0919 94.14 25.2758 94.14 17.5517V16.9195H99.7103C99.7103 9.10344 98.7973 6.91953 95.1454 6.91953C91.7593 6.91953 90.0258 9.01148 90.0258 17.5517C90.0258 25.7356 91.4011 28 95.1454 28ZM49.4506 27.908C52.8367 27.908 53.7497 26.908 53.6572 21.1839H52.1896C52.1896 25.7241 52.0047 26 50.3636 26C48.2603 26 48.4452 25.1839 48.4452 17.4597V16.8276H53.8422C53.8422 9.01148 53.1141 6.82758 49.4506 6.82758C46.0646 6.82758 44.3311 8.91953 44.3311 17.4597C44.3311 26 45.7063 27.9195 49.4506 27.9195V27.908ZM111.879 27.6322H117.45V26.2643H116.987C116.618 26.2643 116.525 26.0804 116.525 25.5402V0L111.313 0.45977V1.82758H111.856C112.226 1.82758 112.318 2.01149 112.318 2.55172V25.6436C112.318 26.1839 112.318 26.2758 112.041 26.2758H111.764V27.6436H111.856L111.879 27.6322ZM71.8473 27.908C74.4013 27.908 75.6841 26.2758 75.6841 23.7241C75.6841 17.8161 70.3796 14.4483 70.3796 10.2644C70.3796 8.98849 70.8419 8.63217 71.7549 8.63217C73.1301 8.63217 73.3035 9.1724 73.4883 11.1724L73.6733 13.0804H75.2334V6.9885H74.0431C73.9506 7.71263 73.7657 7.9885 73.7657 7.89654C73.0261 7.13792 71.9976 6.73562 70.9343 6.80459C68.7386 6.80459 66.7278 7.80459 66.7278 11.0804C66.7278 16.2643 72.0322 20.1724 72.0322 24.0804C72.0322 25.8046 71.6624 26.0804 70.3912 26.0804C69.2009 26.0804 68.8426 25.5402 68.6577 22.9885L68.5652 21.2643H66.9242V27.6322H68.2994C68.3919 26.908 68.6693 26.4482 68.8426 26.7241C69.3049 27.1839 69.848 27.908 71.8589 27.908H71.8473ZM118.374 23.3678C118.374 26.6436 118.836 27.908 122.118 27.908C124.407 27.908 124.95 27 124.95 24.4482V20.9885H123.575V24.6207C123.575 25.8046 123.482 25.9885 123.031 25.9885C122.581 25.9885 122.488 25.8046 122.488 24.8046V8.54022H125.042V6.99999H122.488V1.81609H121.021C120.015 6.44827 119.102 6.99999 117.727 6.99999H117.357V8.54022H118.27V23.3563H118.363L118.374 23.3678ZM21.0214 26.0919C20.016 26.0919 20.016 25.5517 20.016 17.3678C20.016 9.1839 20.016 8.55171 21.0214 8.55171C21.9344 8.55171 21.9344 9.09194 21.9344 17.2758C21.9344 25.4597 21.9344 26.0919 21.0214 26.0919ZM66.2655 7.90804C69.744 5.36781 70.4721 3.36781 69.2818 1.63218C68.7386 0.632183 67.2709 0 66.2655 0.908045C64.9827 1.90804 65.3525 3.72413 67.6407 4.81609C67.1785 5.27586 66.2655 6.27585 65.445 6.99999L66.2655 7.90804ZM104.841 25.3678C104.021 25.3678 104.021 24.4597 104.021 21.7356C104.021 16.7356 104.021 16.1034 105.662 15.1954V23.7356C105.662 25.1034 105.477 25.3678 104.841 25.3678ZM48.4452 15.2758C48.5377 8.81608 48.6301 8.45976 49.5431 8.45976C50.4561 8.45976 50.3636 8.82757 50.3636 15.2758H48.4452ZM94.14 15.2758C94.2324 8.81608 94.3249 8.45976 95.2379 8.45976C96.1508 8.45976 95.9659 8.82757 95.9659 15.2758H94.14Z" fill="#011111"/>
</g>
<defs>
<clipPath id="clip0_129_555">

</clipPath>
</defs>
</svg>
