<svg width="130" height="129" viewBox="0 0 130 129" fill="none" xmlns="http://www.w3.org/2000/svg">

<g id="Gnefito Landing Desktop">
<g id="Offer">
<g id="RISK REVERSAL">
<g id="Group 7">
<g id="SVG" clip-path="url(#clip0_0_1)">
<path id="Vector" d="M64.5811 127.702C99.9296 127.702 128.585 99.2432 128.585 64.1369C128.585 29.0306 99.9296 0.571289 64.5811 0.571289C29.2327 0.571289 0.577148 29.0306 0.577148 64.1369C0.577148 99.2432 29.2327 127.702 64.5811 127.702Z" fill="#DDF0FB" stroke="#111827" stroke-width="1.04624"/>
<path id="Vector_2" d="M84.329 50.8015L82.9862 50.3516L80.1594 58.8927C80.0874 59.1101 80.1241 59.349 80.2572 59.5346C80.3902 59.7208 80.6043 59.8301 80.8319 59.8294H89.3128V58.406H81.8131L84.329 50.8015Z" fill="#111827"/>
<path id="Vector_3" d="M36.3101 82.6055C35.373 82.6055 34.4739 82.9804 33.8113 83.6477C33.1486 84.315 32.7764 85.2207 32.7764 86.1645C32.7764 87.1082 33.1489 88.0137 33.8113 88.681C34.4739 89.3485 35.373 89.7232 36.3101 89.7232C37.2472 89.7232 38.1462 89.3482 38.8089 88.681C39.4715 88.0137 39.8438 87.1082 39.8438 86.1645C39.8424 85.2207 39.4701 84.3164 38.8077 83.6491C38.1451 82.9818 37.2472 82.6068 36.3101 82.6055ZM36.3101 88.2998C35.4525 88.2998 34.6796 87.7791 34.3514 86.9815C34.0235 86.1835 34.2045 85.2651 34.8109 84.6545C35.4173 84.0435 36.329 83.8612 37.1217 84.1917C37.9135 84.5221 38.4304 85.3007 38.4304 86.1642C38.4304 87.3439 37.4813 88.2998 36.3101 88.2998Z" fill="#111827"/>
<path id="Vector_4" d="M88.6026 82.6055C87.6655 82.6055 86.7664 82.9804 86.1038 83.6477C85.4411 84.315 85.0688 85.2207 85.0688 86.1645C85.0688 87.1082 85.4411 88.0137 86.1038 88.681C86.7662 89.3485 87.6655 89.7232 88.6026 89.7232C89.5397 89.7232 90.4387 89.3482 91.1014 88.681C91.764 88.0137 92.1363 87.1082 92.1363 86.1645C92.1349 85.2207 91.7626 84.3164 91.1 83.6491C90.4376 82.9818 89.5397 82.6068 88.6026 82.6055ZM88.6026 88.2998C87.745 88.2998 86.9719 87.7791 86.6439 86.9815C86.3157 86.1835 86.4968 85.2651 87.1034 84.6545C87.7097 84.0435 88.6215 83.8612 89.414 84.1917C90.206 84.5221 90.7229 85.3007 90.7229 86.1642C90.7229 87.3439 89.7738 88.2998 88.6026 88.2998Z" fill="#111827"/>
<path id="Vector_5" d="M108.001 64.173L96.9812 58.6211L92.8217 42.5632C92.7396 42.2512 92.4582 42.0325 92.1369 42.0332H73.0561V32.7801C73.0561 32.5913 72.9817 32.4104 72.8493 32.2768C72.7166 32.1433 72.537 32.0684 72.3494 32.0684H21.4653C21.0747 32.0684 20.7585 32.3868 20.7585 32.7801V84.0277C20.7585 84.2164 20.833 84.3974 20.9655 84.5309C21.098 84.6645 21.2779 84.7394 21.4653 84.7394H26.5254C26.0906 87.6112 26.9216 90.5315 28.8014 92.7349C30.6811 94.9387 33.4221 96.2066 36.3066 96.2066C39.191 96.2066 41.9318 94.9387 43.8117 92.7349C45.6915 90.5315 46.5225 87.6114 46.0877 84.7394H78.8232C78.3884 87.6112 79.2194 90.5315 81.0994 92.7349C82.9792 94.9387 85.7202 96.2066 88.6044 96.2066C91.4888 96.2066 94.2298 94.9387 96.1096 92.7349C97.9896 90.5315 98.8204 87.6114 98.3858 84.7394H107.686C107.873 84.7394 108.053 84.6645 108.186 84.5309C108.318 84.3974 108.393 84.2164 108.393 84.0277V64.8107C108.393 64.5404 108.24 64.293 108.001 64.173ZM41.9599 33.4913H51.8541V48.7104L47.223 46.3744C47.0237 46.2745 46.7903 46.2745 46.5908 46.3744L41.9599 48.7104V33.4913ZM36.3061 94.7035C34.0566 94.7035 31.8999 93.8037 30.3091 92.2021C28.7188 90.6 27.8253 88.4278 27.8253 86.1623C27.8253 83.8967 28.7188 81.7244 30.3091 80.1223C31.8999 78.5209 34.0566 77.621 36.3061 77.621C38.5556 77.621 40.7123 78.5209 42.3031 80.1223C43.8932 81.7244 44.7867 83.8967 44.7867 86.1623C44.7841 88.4266 43.8902 90.5982 42.2999 92.1989C40.7105 93.8003 38.5542 94.701 36.3061 94.7035ZM71.6423 83.3151H45.7835C44.9682 80.5544 43.0059 78.285 40.4028 77.0916C37.8007 75.8982 34.8122 75.8982 32.2098 77.0916C29.607 78.285 27.6445 80.5544 26.8291 83.3151H22.1717V33.4913H40.5465V49.8612C40.5453 50.1084 40.6715 50.3391 40.8798 50.4694C41.0885 50.6002 41.3491 50.6123 41.5694 50.5017L46.907 47.8097L52.2448 50.5017C52.4651 50.6123 52.7257 50.6002 52.9344 50.4694C53.1427 50.3391 53.2689 50.1084 53.2677 49.8612V33.4913H71.6425L71.6423 83.3151ZM88.6037 94.7035C86.3542 94.7035 84.1975 93.8037 82.6067 92.2021C81.0166 90.6 80.1231 88.4278 80.1231 86.1623C80.1231 83.8967 81.0166 81.7244 82.6067 80.1223C84.1975 78.5209 86.3542 77.621 88.6037 77.621C90.8534 77.621 93.0099 78.5209 94.6007 80.1223C96.191 81.7244 97.0845 83.8967 97.0845 86.1623C97.082 88.4266 96.1878 90.5982 94.5975 92.1989C93.0081 93.8003 90.8518 94.701 88.6037 94.7035ZM106.978 83.3151H98.0809C97.2656 80.5544 95.3032 78.285 92.7002 77.0916C90.0981 75.8982 87.1096 75.8982 84.5072 77.0916C81.9044 78.285 79.9418 80.5544 79.1265 83.3151H73.0557V43.4561H91.5919L95.691 59.2941C95.7429 59.4932 95.8771 59.6604 96.0595 59.7518L106.979 65.2489L106.978 83.3151Z" fill="#111827"/>
</g>
</g>
</g>
</g>
</g>
<defs>
<clipPath id="clip0_0_1">
<rect width="129.161" height="128.277" fill="white"/>
</clipPath>
</defs>
</svg>
