<svg width="129" height="129" viewBox="0 0 129 129" fill="none" xmlns="http://www.w3.org/2000/svg">

<g id="Gnefito Landing Desktop">
<g id="Offer">
<g id="RISK REVERSAL">
<g id="Group 7">
<g id="SVG" clip-path="url(#clip0_0_1)">
<path id="Vector" d="M64.1388 127.702C99.2452 127.702 127.704 99.2432 127.704 64.1369C127.704 29.0306 99.2452 0.571289 64.1388 0.571289C29.0325 0.571289 0.573242 29.0306 0.573242 64.1369C0.573242 99.2432 29.0325 127.702 64.1388 127.702Z" fill="#DDF0FB" stroke="#111827" stroke-width="1.04624"/>
<path id="Vector_2" d="M100.371 38.2686C100.371 38.2654 100.368 38.2627 100.368 38.2586C100.362 38.2038 100.343 38.1536 100.322 38.1032C100.314 38.0852 100.312 38.0632 100.304 38.0455C100.241 37.9266 100.134 37.8362 100.003 37.7853C99.9932 37.7816 99.9864 37.7748 99.9758 37.7709C99.9699 37.7693 99.9653 37.764 99.9589 37.7617L64.514 27.5821C64.405 27.5076 64.2746 27.4778 64.1379 27.4932C64.0016 27.4778 63.8713 27.5087 63.7627 27.5821L28.3178 37.7624C28.3148 37.7629 28.3125 37.7661 28.3089 37.7672C28.2601 37.7828 28.2193 37.8094 28.1769 37.8362C28.1556 37.849 28.1314 37.857 28.1123 37.8721C28.0805 37.8998 28.0576 37.9358 28.0313 37.9695C28.0132 37.9942 27.9889 38.0151 27.974 38.0419C27.9586 38.07 27.9543 38.1048 27.9437 38.136C27.93 38.1761 27.9135 38.2141 27.9094 38.2574C27.9094 38.2611 27.9062 38.265 27.9062 38.2693C24.5101 79.9899 42.4734 89.3424 56.9063 96.8564C59.2776 98.0911 61.5181 99.2625 63.6021 100.528C63.7107 100.694 63.8894 100.79 64.0754 100.79C64.096 100.79 64.1173 100.784 64.1379 100.782C64.1585 100.784 64.1798 100.79 64.2004 100.79C64.386 100.79 64.5646 100.694 64.6732 100.528C66.7582 99.2628 68.9984 98.0911 71.3699 96.8564C85.8042 89.3419 103.767 79.9892 100.371 38.2686ZM70.8481 95.8323C68.4791 97.0653 66.24 98.2386 64.1386 99.5097C62.0374 98.2386 59.7982 97.0653 57.4292 95.833C42.6094 88.1174 25.8199 79.3721 29.0123 38.7597L64.1381 28.6703L99.2641 38.7597C102.456 79.3721 85.6691 88.1169 70.8481 95.8323Z" fill="#111827" stroke="#111827" stroke-width="0.418496"/>
<path id="Vector_3" d="M76.4153 49.522C76.1489 49.3502 75.7976 49.4277 75.6274 49.6959L61.2989 72.262L52.4265 64.2569C52.1917 64.045 51.8314 64.0654 51.622 64.3029C51.4122 64.54 51.4323 64.904 51.6676 65.1154L61.0384 73.5707C61.0512 73.583 61.0671 73.5867 61.081 73.5968C61.0925 73.6055 61.0984 73.6179 61.1106 73.6252C61.1335 73.6408 61.1582 73.6467 61.1811 73.6584C61.2001 73.6669 61.2182 73.6777 61.2384 73.6836C61.2977 73.7033 61.3575 73.7168 61.4175 73.7168C61.5039 73.7168 61.5886 73.6932 61.6665 73.6536C61.6924 73.6408 61.7116 73.6199 61.735 73.6039C61.7714 73.5787 61.8117 73.5595 61.842 73.5246C61.8546 73.5102 61.8578 73.4926 61.8695 73.4781C61.877 73.4662 61.8901 73.4626 61.8976 73.4518L76.5869 50.3185C76.756 50.0503 76.6811 49.6931 76.4153 49.522Z" fill="#111827" stroke="#111827" stroke-width="0.418496"/>
<path id="Vector_4" d="M64.0828 39.834C52.2131 39.834 42.5569 49.5862 42.5569 61.5727C42.5569 73.5597 52.2136 83.3126 64.0828 83.3126C75.9528 83.3126 85.6101 73.5599 85.6101 61.5727C85.6101 49.5857 75.9525 39.834 64.0828 39.834ZM64.0828 82.1632C52.8412 82.1632 43.6953 72.9266 43.6953 61.5741C43.6953 50.2212 52.8405 40.985 64.0828 40.985C75.3254 40.985 84.4706 50.2216 84.4706 61.5741C84.4706 72.9259 75.3249 82.1632 64.0828 82.1632Z" fill="#111827" stroke="#111827" stroke-width="0.418496"/>
</g>
</g>
</g>
</g>
</g>
<defs>
<clipPath id="clip0_0_1">
<rect width="128.277" height="128.277" fill="white"/>
</clipPath>
</defs>
</svg>
