<svg id="Layer_1" data-name="Layer 1" xmlns="http://www.w3.org/2000/svg" viewBox="0 0 512 400"><path d="M451,220.89c5.58,1.79,6.86,5.87,6.64,11.29-2.4,60.83-41.18,108.18-100.38,122-6.91,1.61-14.15,1.71-21.19,2.84a13.38,13.38,0,0,0-6.43,2.79c-4,3.49-7.57,7.51-11.42,11.2-9.05,8.7-13,19.45-13.05,31.82,0,24.17.1,48.33-.15,72.49,0,2.63-1.33,6.12-3.27,7.66-4.53,3.62-10.61.07-10.86-6-.37-8.64-.28-17.31-.89-25.93-.59-8.43-4.45-15.61-10.14-21.72q-6.81-7.32-14.13-14.14a8.7,8.7,0,0,0-5.25-2.1C202.4,411.3,153.39,368.77,141.63,314c-1.94-9-2.54-18.42-3.19-27.69-.44-6.34,2.69-8.93,9.2-8.87,60.58.63,110.94,41.57,124,101,1.41,6.45,1.42,13.2,2.54,19.74a17.73,17.73,0,0,0,3.38,7.71c3.59,4.52,7.72,8.61,11.64,12.87l1.63-.87c0-4.72.16-9.45,0-14.17-.69-17.73,5.93-32.26,18.45-44.64,25.83-25.55,51.42-51.34,77.11-77a21.42,21.42,0,0,1,3.69-3.33c3.15-1.91,6.42-1.93,9.16.74s2.8,6,1,9.13a19.26,19.26,0,0,1-3.29,3.72q-22.06,22.13-44.17,44.21c-1.15,1.15-2.23,2.37-3.58,3.81,43.75-4.82,91.15-47.1,93.45-105-8.62,1.7-17.16,2.68-25.26,5.1-30.7,9.16-53.48,28.2-68.5,56.5-1.59,3-3.14,5.87-7.18,6-6.3.27-9.62-5.25-6.55-11.41a123.35,123.35,0,0,1,29.66-38.54c21.63-18.83,46.65-29.61,75.4-31.42a25.89,25.89,0,0,0,3.85-.82Zm-194,165c-8.38-58.31-61.19-93.42-103.37-93.08,1.35,52,44.93,97.7,93.35,103.8-1.36-1.49-2.42-2.72-3.56-3.86q-21.7-21.75-43.45-43.47c-.7-.71-1.42-1.4-2.11-2.12-3.76-3.92-4.21-8.38-1.17-11.47s7.68-2.76,11.47,1q19.66,19.55,39.21,39.21C250.59,379.19,253.74,382.57,257,385.9Z" transform="translate(-42 -220.89)"/><path d="M473,620.89c-5.2-1.66-7-5.3-7-10.63q.17-49,0-97.91c0-4.44.62-8.49,5.53-10s7.26,1.73,9.63,5.16q27,39.22,54.16,78.4c.83,1.19,1.73,2.34,3.58,4.82,0-3.14,0-4.86,0-6.57q-.44-35-.88-69.93c0-1.5-.11-3,0-4.49.34-4.76,3.24-7.81,7.37-7.86s7.14,3,7.53,7.68c.1,1.32,0,2.66,0,4,.12,19.65.21,39.3.37,59,0,2.13.41,4.27.63,6.4v33c-2,4.52-4.75,8.59-10.36,6.93-2.7-.8-5.41-3.21-7.09-5.61-17.26-24.66-34.3-49.47-51.41-74.23-1.06-1.54-2.23-3-4.14-5.58v6.28c0,23.31-.12,46.62.09,69.93.05,5.19-1.33,9-6.09,11.28Z" transform="translate(-42 -220.89)"/><path d="M285,620.89c-7.13-2-14.62-3.18-21.32-6.15C239.62,604,226.21,578.35,230,551.61c3.47-24.26,24-44.72,48.91-48.9,14.59-2.45,28.09.36,40.7,7.83,5.39,3.2,6.78,6.9,4.45,11S317.52,526.19,312,523c-15.28-8.71-30.86-9.13-46-.17-15.31,9.08-22.5,23.15-21.92,40.93.87,26.83,28.39,47.48,54.26,40.89,15.3-3.89,25.79-17.53,27.31-36.07-6.16,0-12.28,0-18.4,0a35.5,35.5,0,0,1-6.44-.52,6.57,6.57,0,0,1-5.61-7.19c.18-3.83,2.55-6.8,6.59-6.89q16.24-.36,32.49,0a6.56,6.56,0,0,1,6.62,6.86c.24,22.44-9.74,51.78-41.63,58.65-2.73.59-5.52.93-8.28,1.39Z" transform="translate(-42 -220.89)"/><path d="M357,620.89c-6.54-3.35-7.59-5.9-5-12.75q18.63-49.08,37.31-98.15c1.79-4.7,4.5-8.21,10.05-8.1,5.28.11,7.89,3.47,9.6,8q18.46,49.12,37,98.21c2.59,6.88,1.54,9.41-5,12.77h-2c-3.78-1.56-5.83-4.45-7.06-8.31-1.5-4.72-3.55-9.27-5.09-14-.92-2.8-2.38-3.81-5.39-3.75-10,.2-19.94,0-29.92.09-6.13,0-13.82-2-18,.89-4.31,3-5.4,10.88-7.51,16.75-1.36,3.78-3.27,6.77-7.07,8.31Zm42.14-95.39c-7.23,19-13.87,36.54-20.66,54.41h41.16C412.84,561.86,406.26,544.41,399.14,525.5Z" transform="translate(-42 -220.89)"/><path d="M42,506.89c2.24-2.94,4.58-5.82,8.88-4.93,4,.83,5.27,4,6.46,7.45Q71.07,549.12,85,588.76c.58,1.67,1.2,3.32,2.28,6.29,4.18-12.45,8-23.62,11.68-34.81q8.61-25.95,17.15-51.92c1.2-3.64,3.53-6.78,7.34-6.14,2.57.42,5,3.1,6.92,5.28.76.86.31,3.2-.17,4.67-11.07,33.69-22.11,67.4-33.57,101-1.06,3.1-5,5.22-7.58,7.8H86c-4.94-1.71-7.47-5.29-9.09-10.2C72.1,596.06,67,581.54,61.86,567Q52,538.92,42,510.89Z" transform="translate(-42 -220.89)"/><path d="M166.09,516.91v37H189c3.33,0,6.67-.16,10,.06a6.86,6.86,0,0,1,6.86,6.66c.32,3.89-1.71,6.75-5.76,7.53a35.52,35.52,0,0,1-6.45.47c-9,0-18,0-27.39,0v36.88c10.05,0,20,0,30,0a47.53,47.53,0,0,1,7,.29c3.84.6,5.8,3.13,5.78,7,0,4.07-2.3,7-6.25,7.06-15.16.26-30.33.35-45.48,0-4.73-.13-6.31-4.14-6.29-8.67.05-15.32,0-30.65,0-46q0-26.48,0-53c0-7.16,2.43-9.86,9.39-9.92q19.74-.18,39.48,0c6.43.05,10,3.43,9.08,8.49-.81,4.45-3.87,6.25-8.28,6.23C189.35,516.87,178,516.91,166.09,516.91Z" transform="translate(-42 -220.89)"/></svg>