<svg id="Layer_1" data-name="Layer 1" xmlns="http://www.w3.org/2000/svg" viewBox="0 0 412 447.12"><path d="M92,410.86c1.32-9.35,2.33-18.75,4-28a197.68,197.68,0,0,1,23.12-62.72c1.91-3.36,4.48-5.64,8.5-3.25,3.84,2.28,3.59,5.55,1.63,9a190.6,190.6,0,0,0-22.42,62.41q-12.36,73.65,27.1,137c1,1.56,2,3,3,4.62,1.94,3.27,2.05,6.46-1.37,8.74s-6.57.73-8.4-2.46c-5.86-10.22-12.09-20.3-17-31a189.87,189.87,0,0,1-17.26-68.62,24.4,24.4,0,0,0-.84-3.8Z" transform="translate(-92 -197.93)"/><path d="M504,431.86c-1.33,9.67-2.26,19.42-4.05,29a200.51,200.51,0,0,1-30.81,75c-2.16,3.23-4.8,5.24-8.73,2.85-3.16-1.93-3.46-5.46-.75-9.59a192.57,192.57,0,0,0,29.48-73.9q11.39-66.77-20.76-126.33c-.86-1.61-2.44-3.3-2.33-4.86.18-2.46.87-5.48,2.5-7.09,2.45-2.43,5.24-.76,7.31,1.53a12,12,0,0,1,1.28,2.14,200.69,200.69,0,0,1,25,76c.58,5.07,1.24,10.14,1.87,15.21Z" transform="translate(-92 -197.93)"/><path d="M268.17,480c-3.2,3.67-5.57,6.95-8.49,9.61-7.69,7-16,4.46-18.12-5.67-.71-3.35-.16-7-.47-10.41-.39-4.48-1.07-8.94-1.49-12.36-7.35,2.84-13.69,6.51-20.47,7.66-14.61,2.49-26.93-4.19-38.13-12.63a112.7,112.7,0,0,1-14.86-14.05c-11.38-12.38-11.94-27.3-8.88-42.68,2-10.07,4.7-20,7.22-30,4.14-16.35,17.67-20.38,29.78-8.94.45.43,1,.8,2,1.63,2.71-4.46,5.29-8.66,7.84-12.89,4-6.62,8.82-11.15,17.49-8.5,10.76,3.29,21.88,5.57,32.42,9.44a99.08,99.08,0,0,0,35.11,6A138.64,138.64,0,0,1,314.39,358c9.33,1.68,12.48,10,7.93,18.41-.56,1-1.09,2.06-1.73,3-4,6.09-5,12.17-.36,18.48,1.27,1.71,2,3.8,3.76,7.14,2.93-6.81,5.12-12.77,8-18.37,2.63-5.06,5.49-10.2,9.24-14.42,3.16-3.57,8-4.65,12.88-2.69s7.36,6,7.94,11.18A47.43,47.43,0,0,0,364,391.57a16.79,16.79,0,0,1,1.9-3.15c5.49-5.79,10.67-11.95,16.71-17.11,5.24-4.48,9.24-9.45,11.58-15.87,1.87-5.15,3.89-10.24,5.79-15.37,3.12-8.45,10.64-11.44,18.33-6.91,8.45,5,14,12.79,18.46,21.21.88,1.66-.62,5.28-2.05,7.26s-4.17,3.11-6.64,4.83c7.91,3,12.51,8,12.09,16.64a14.23,14.23,0,0,1-14.53,14c-4.64.06-9.29.14-13.89.62-3.84.41-6.42,2.68-6.86,6.75-.69,6.24-2.18,12.56-1.75,18.73.78,11.09-2.36,19.89-11.39,26.59a27.64,27.64,0,0,0-6.13,6.5c-3.49,5.12-3.1,9.23.71,14.16,8.17,10.54,9.53,22,4.5,34.26C387,513.86,378,515.84,372,507.94c-5.23-6.9-8.64-15.19-12.67-23-2.09-4-3.77-8.27-6.25-13.77-2.27,3.41-3.7,5.34-4.91,7.4-8.18,14-19,15.67-31.79,5.61-3.31-2.59-8.29-3.06-12.5-4.5l-1.12,1.46c.46,2,1,4,1.39,6,1,4.51,2.53,9,2.73,13.56.39,8.49-5.69,12.95-13.77,10.49-13.64-4.15-22.15-13-24.17-27.42C268.83,482.71,268.53,481.63,268.17,480Zm27.5,19.68c-1.55-5.45-3.07-10.11-4.21-14.87-2.19-9.15,3.15-16,12.56-15.93,7.93.08,15.35,1.67,21.53,7.44,4.5,4.21,8,3.41,11.46-1.79,1.39-2.06,2.56-4.28,4-6.34,6.73-9.93,16.32-10.27,23-.37,2.92,4.33,4.55,9.53,6.82,14.31,2.72,5.74,5.5,11.44,8.64,17.95,3.94-8.28,3.43-16-2.17-22-7-7.61-7.32-21.42-.24-29.85a70.87,70.87,0,0,1,8.86-8.72c3.88-3.24,5.24-7,5.42-12.15A240.11,240.11,0,0,1,394,400.17c1.07-7.14,6.1-11.58,12.81-13.15,5.39-1.27,11.12-1.34,16.71-1.42,2.74,0,5.19-.48,4.91-3.26-.16-1.59-2.63-3.21-4.39-4.26-1-.57-2.59,0-3.92.11-4.07.26-8.17.42-10.39-4-2.37-4.72.5-8,3.56-10.9s6.56-5.5,11-9.17c-4.14-4.08-8-7.9-12.51-12.32-2.31,6.2-4,10.88-5.8,15.51-3,7.82-7,14.84-13.26,20.8-7.91,7.53-15.18,15.75-22.32,24-2.54,3-4.6,5.51-8.92,5s-7.29-3-8.38-6.86c-1.25-4.4-1.48-9.09-2.14-13.66-.28-1.93-.53-3.87-.8-5.8l-2-.41c-1.67,3.08-3.5,6.08-5,9.24-3.41,7.17-5.94,14.87-10.15,21.53-6.26,9.89-15,8.86-20-1.66-1.51-3.14-3-6.31-4.71-9.34-3.8-6.74-4.12-13.52-.7-20.48,1.64-3.35,3.2-6.74,5.59-11.79-9.93,0-18.54-.14-27.14,0-12.15.25-23.65-2.46-35.06-6.42-10-3.47-20.34-5.9-30.43-9.09-3.38-1.07-4.89.32-6.4,2.83-2.64,4.42-5,9-8.2,13.09-5.89,7.53-12.78,7.57-19.56.94-1.62-1.59-4.67-3.72-6-3.14-2,.85-3.67,3.72-4.3,6.05-2.83,10.4-5.49,20.86-7.7,31.4-1.92,9.12-2.23,18.57,3.42,26.48,9.07,12.7,20.48,22.65,36.12,26.76,8.63,2.26,16,.47,22.52-5.69s14.43-4.75,18.54,3.21A19.5,19.5,0,0,1,251,459.9c1,6.12,1.8,12.29,2.76,19,3.13-4.17,5.77-8.61,9.35-12.08,2.11-2.06,6-4,8.53-3.42s5.11,4,6.17,6.79c1.71,4.43,2.32,9.31,3.15,14.05C282.37,492.19,287.34,496.7,295.67,499.65Z" transform="translate(-92 -197.93)"/><path d="M147,272.56l22.49,27.87-9.28,8.32-29.65-38.06c4.42-3.92,8.63-7.86,13.13-11.4.77-.6,3.13.08,4.29.86,7.28,4.91,14.44,10,22.38,15.58-3.81-8.27-7.13-16-10.9-23.44-1.87-3.72-1.83-6.14,1.88-8.66,3.54-2.42,6.56-5.61,10.07-8.7l33.27,34.76-9.87,8.77L169.66,251l-.65.43q6,13,12,26.06c4.06,8.86,4.06,8.86-4.49,15.27L147.65,272Z" transform="translate(-92 -197.93)"/><path d="M438.59,288.38l20.62-22.58,9,8.54-33,35c-3.17-2.95-6.42-5.54-9-8.66-1-1.15-.95-3.69-.52-5.38,2.82-11,5.88-22,9-33.7l-23.37,25.13-9.09-8.29,33.12-35.08c3.65,3.44,7.33,6.5,10.46,10.06,1,1.16,1.16,3.72.74,5.4C444.06,268.7,441.28,278.53,438.59,288.38Z" transform="translate(-92 -197.93)"/><path d="M262.7,247.67c-.55-6.64-1.17-13.08-1.6-19.53-.55-8.14-1.05-16.28-1.32-24.43,0-1.23,1.11-3.51,1.93-3.61,10.49-1.32,20.93-3.92,31.57-.41,9,3,14.47,8.83,15.58,18.13,1.18,10-1.84,18.43-11,23.87C287.05,248.15,275.13,248.13,262.7,247.67Zm12.49-10.85c8.63,1,15.48-2,18.24-7.83s1.64-13.21-2.53-17.18-11.89-5-17.67-2.08C273.87,218.63,274.52,227.58,275.19,236.82Z" transform="translate(-92 -197.93)"/><path d="M196,566.93l11.63,6.25c-2.69,5.19-5.2,10-8.06,15.53l16.25,8.65,8.45-15.43,11.6,6.09c-3.77,7.21-7.41,14.21-11.09,21.18s-7.46,14-11.37,21.33l-11.69-6,8.86-17-16.28-8.73-9.11,16.85-11.69-6.07Z" transform="translate(-92 -197.93)"/><path d="M308.35,599.07l13.24-2.54c1.52,8.05,2.94,15.79,4.48,23.52a37.16,37.16,0,0,0,2,7.15c2,4.85,5.54,6.71,10.35,5.58,4.59-1.08,6.84-4.5,6.42-8.83-.7-7.08-2.14-14.08-3.32-21.11-.51-3.09-1.13-6.16-1.76-9.58l13.29-2.69c1.69,11.32,3.81,22.33,4.8,33.45a15.23,15.23,0,0,1-9.44,15.68,46.72,46.72,0,0,1-15.24,3.93c-8.34.62-15.25-4.07-17.7-12.55C312.49,620.8,310.75,610.15,308.35,599.07Z" transform="translate(-92 -197.93)"/><path d="M255.57,249.16c-2,.89-3.51,1.57-5,2.19-8.22,3.38-8.29,3.43-13.85-3.31-1.71-2.07-3.29-3.13-5.86-1.54a10.59,10.59,0,0,1-3.22,1.28c-5.38,1.21-8,3.76-5.81,9.72,1.26,3.39,0,6-4,6.95-2.68.64-5.22,1.9-8.41,3.11-.36-4.75-.69-9-1-13.19-.82-11.1-1.54-22.21-2.51-33.29-.27-3.05.87-4.44,3.62-5.34,4.38-1.44,9-5.05,12.87-4.25,3.53.74,6.2,6,9.1,9.37C239.42,230.06,247.23,239.33,255.57,249.16Zm-37.73-25.94-.91.41c.75,5.57,1.51,11.14,2.32,17.13l9.56-3.89C224.81,231.88,221.32,227.55,217.84,223.22Z" transform="translate(-92 -197.93)"/><path d="M432.08,603.19c-3.51-7.32-6.79-14.17-10.06-21-1.93-4-3.84-8.09-5.77-12.13-6.29-13.21-6.34-13.27,5.29-22.67a5.71,5.71,0,0,1,5.07-.57c13.81,7.23,27.48,14.72,41.84,22.49-3.26,3.09-6,6.14-9.26,8.51-1,.75-3.48,0-5.12-.6-2.58-.88-5.82-3.74-7.38-3-3.57,1.79-6.37,5.19-9.27,8.15-.44.45.08,2.14.52,3.09,1.26,2.69,2.7,5.29,4.26,8.28Zm6.84-35.69-15.06-8.84-.69.72,8.23,15.24Z" transform="translate(-92 -197.93)"/><path d="M334.15,238.64l21.17,4.79c-.54,3.31-1.07,6.48-1.71,10.32L319,246.34c3.35-15.58,6.68-31,10.14-47.05l33.14,7.06c-.62,3.48-1.2,6.76-1.84,10.37l-20.52-4.19-1.61,7.32,18.85,4.32c-.44,2.71-.52,5.55-1.52,8-.38.95-3,1.64-4.38,1.42-4.87-.79-9.68-2-15-3.21C335.49,233.27,334.88,235.73,334.15,238.64Z" transform="translate(-92 -197.93)"/><path d="M245.79,590.71l33.41,7c-.76,3.58-1.43,6.73-2.18,10.24l-20.21-4.07c-.59,2.45-1.15,4.75-1.79,7.41l19.14,4.14c-.64,3.39-1.23,6.57-1.92,10.23l-19.13-3.76-2,8.18,21.34,4.65c-.59,3.44-1.14,6.61-1.78,10.31L236,637.91C239.29,622.07,242.5,606.6,245.79,590.71Z" transform="translate(-92 -197.93)"/><path d="M393.23,572.77c.7,3.79,1.3,7,1.81,9.77-4.61,1.77-8.87,3.09-12.79,5.08-1.41.71-2,3-3,4.62,1.73.62,3.47,1.79,5.19,1.76,4.13-.07,8.25-1,12.39-1,5.33-.09,9.63,2.12,12.31,7a12.89,12.89,0,0,1-.77,14.55c-5.85,8.28-14.54,11.78-24.15,13.27-.92.14-2.7-1.2-3.05-2.21a54.51,54.51,0,0,1-1.55-7.77c4.09-1.06,8-1.83,11.64-3.11a15.66,15.66,0,0,0,5.36-3.47,4,4,0,0,0,.9-3.52,3.88,3.88,0,0,0-3-1.91,53.24,53.24,0,0,0-8.89.88c-10,1.74-17.19-2.14-19.06-10.52-1.12-5,.88-9.18,4.13-12.73C376.57,577,384.18,574.13,393.23,572.77Z" transform="translate(-92 -197.93)"/><path d="M146,586.73l-8.67-9.91,27.56-24.54-11.75-10.34,7.6-8,27.43,30.16,1.93-1.32-7.56,7L173.27,561C164.13,569.62,155.22,578,146,586.73Z" transform="translate(-92 -197.93)"/><path d="M392.13,273.12l-11.44-6.68,24.22-41.6,11.44,6.68Z" transform="translate(-92 -197.93)"/></svg>