<svg id="Layer_1" data-name="Layer 1" xmlns="http://www.w3.org/2000/svg" viewBox="0 0 383 383"><path d="M286.14,193.89h23a18.69,18.69,0,0,0,3.32.81,168.25,168.25,0,0,1,55.64,12.74c61.59,25.95,100.73,71.29,116.26,136.47,2.34,9.82,3.22,20,4.78,30v23c-1.32,8.86-2.34,17.77-4,26.57-13.83,74.11-75.92,136-150,149.52-8.63,1.58-17.35,2.62-26,3.91h-23c-1.1-.28-2.19-.64-3.3-.83-11.94-2-24.26-2.81-35.77-6.28-72.28-21.84-117.93-69.53-136.08-143-2.49-10.09-3.28-20.6-4.85-30.91v-21a33.59,33.59,0,0,0,.82-4.3,169.88,169.88,0,0,1,12.56-55.22c26.23-62.58,72.42-101.87,138.64-117.18C267.33,196.08,276.8,195.29,286.14,193.89ZM432.61,505.6c64.2-71.77,62.52-184.75-13-253.77-75.22-68.7-182.23-57.26-241.57-1.47,1,1.08,1.93,2.21,3,3.24q25.8,25.82,51.62,51.59c2.24,2.24,4.87,4.26,6.44,6.91.94,1.58,1,5.14-.05,6.1-1.43,1.27-4.41,1.36-6.59,1.05-1.36-.2-2.5-2.05-3.68-3.22Q201.3,288.64,174,261.19c-1.25-1.27-1.79-3.25-2.65-4.89-50.06,53.8-68,114.59-45.92,182.9,24,74.12,77.16,116.87,154.54,126,56.23,6.64,104.83-12.67,145.83-51.9-1-1.1-1.42-1.61-1.88-2.07q-18.9-18.92-37.81-37.83c-2.69-2.67-4.05-5.54-.89-8.6s5.76-1.22,8.2,1.21c4.25,4.24,8.51,8.46,12.73,12.73C414.87,487.6,423.62,496.49,432.61,505.6Z" transform="translate(-106.14 -193.89)"/><path d="M364.65,409.62H353.46V362.17h16.61l8.43,31.59,8.5-31.71h16.6v47.56h-11V381.49l-1.25-.2c-2.56,9.39-5.13,18.78-7.75,28.35H373.41c-2.63-9.64-5.23-19.2-7.84-28.77l-.92.08Z" transform="translate(-106.14 -193.89)"/><path d="M173.22,362h11.59v47.85c-3.2,0-6.37.35-9.41-.13-1.76-.28-4-1.51-4.82-3-4.16-7.74-7.91-15.7-12.67-23.5V409.5H146.4V361.91c3.68,0,7.47-.31,11.16.16,1.33.17,2.82,2,3.54,3.45,3.9,7.69,7.57,15.5,12.12,23.19Z" transform="translate(-106.14 -193.89)"/><path d="M246.69,383.33V409.5H235.4V361.91c3.69,0,7.48-.31,11.17.16,1.32.17,2.81,2,3.53,3.45,3.9,7.7,7.58,15.51,12.12,23.2V362.21h11.59v47.68c-3.2,0-6.37.35-9.41-.13-1.76-.28-4-1.51-4.82-3-4.16-7.74-7.91-15.7-11.8-23.59Z" transform="translate(-106.14 -193.89)"/><path d="M189.83,385.8c.46-3.2.7-6.19,1.33-9.1,2.2-10,9.43-15.71,19.65-15.55s17.46,5.53,19,15.55a59.6,59.6,0,0,1-.19,19.22c-1.7,9.68-9,14.76-19.06,14.78s-17-5.28-19.28-14.75C190.49,392.59,190.29,389.08,189.83,385.8Zm13.26.26c.69,3.65.93,7.54,2.27,11a6.88,6.88,0,0,0,5.13,3.61,6.78,6.78,0,0,0,5.21-3.5,31.87,31.87,0,0,0,.06-22.34c-.62-1.71-3.47-3.77-5.13-3.64a7.59,7.59,0,0,0-5.34,4C203.94,378.5,203.79,382.26,203.09,386.06Z" transform="translate(-106.14 -193.89)"/><path d="M407.83,385.83c.46-3.21.7-6.2,1.33-9.1,2.19-10.06,9.4-15.72,19.63-15.59s17.47,5.52,19,15.53a59.94,59.94,0,0,1-.18,19.23c-1.69,9.68-9,14.77-19,14.8s-17-5.26-19.29-14.72C408.5,392.61,408.29,389.1,407.83,385.83Zm13.32.1c.59,3.59.6,7.24,1.92,10.33.85,2,3.55,4.21,5.59,4.38,1.69.15,4.63-2.19,5.27-4a31.7,31.7,0,0,0-.06-21.42c-.65-1.83-3.55-4-5.4-4s-4.48,2.25-5.23,4.13C421.92,378.64,421.78,382.4,421.15,385.93Z" transform="translate(-106.14 -193.89)"/><path d="M328.63,383.73h18.5c4.76,17.44-7.66,30.47-24.78,26.2a16.29,16.29,0,0,1-12.1-11.45,39.31,39.31,0,0,1,0-25c3.07-9.24,11.34-13.63,21.92-12,9.33,1.44,14.43,7.07,14.87,16.82H335a4.82,4.82,0,0,1-.67-1.34c-.72-3.33-2-6.2-6-6s-5.38,3.38-5.7,6.52a88.14,88.14,0,0,0-.27,15.41c.29,3.78,1.38,8.11,6.44,8,5.34-.07,5.84-4.4,6.48-8.76l-6.18-.76C328.94,389.12,328.8,386.74,328.63,383.73Z" transform="translate(-106.14 -193.89)"/><path d="M281.6,390.39v-8.92h20v8.92Z" transform="translate(-106.14 -193.89)"/></svg>