<svg id="Layer_1" data-name="Layer 1" xmlns="http://www.w3.org/2000/svg" viewBox="0 0 412 450"><path d="M92,409.89c1-7.55,1.8-15.12,3-22.64a200,200,0,0,1,27.81-74.58c1.94-3.16,4.58-5.08,8.29-2.81s3.65,5.59,1.54,9c-11,18-19.23,37.13-23.68,57.76Q89.3,467.71,146.29,541.47a180.21,180.21,0,0,0,34.25,33.38c.93.7,1.91,1.35,2.79,2.11,2.72,2.35,3.85,5.18,1.52,8.3s-5.66,3.41-8.69.87c-7.91-6.62-16.17-12.92-23.45-20.18q-47.34-47.24-57.86-113.46c-1.08-6.84-1.91-13.73-2.85-20.6Z" transform="translate(-92 -195.89)"/><path d="M504,430.89c-1.32,9.49-2.16,19.07-4,28.45-10.41,52.29-37.11,94.42-79.66,126.52-3.25,2.45-6.54,3-9.12-.58-2.81-3.9-.64-6.73,2.65-9.19,34.81-26.14,58.8-60,70.61-101.88,14.94-52.93,8.5-103.58-18.76-151.47-.74-1.3-1.54-2.57-2.31-3.85-2.1-3.46-2.25-6.73,1.55-9,4-2.41,6.73-.13,8.53,3.24,4.63,8.63,9.53,17.15,13.48,26.09a191.28,191.28,0,0,1,16.26,67.35,18.32,18.32,0,0,0,.8,3.35Z" transform="translate(-92 -195.89)"/><path d="M290,645.89c-2.87-.59-5.86-.87-8.57-1.87a8,8,0,0,1-4.16-3.63c-.95-2-1-4.51-1.27-6.81-.78-7-2-8.2-9.75-9.36-.83,5.67-1.66,11.34-2.59,17.65l-12.84-1.43c2-15.78,4-31.29,6-47.36,9.93.78,19.6.07,28.63,4.17,5,2.28,8.63,5.74,8.57,11.7s-2.93,10-8.53,12.18a5.81,5.81,0,0,0-1.22.94c6.4,6.83,5.61,15.59,6.75,23.82Zm-22.65-31.51c4.35,1.67,8.63,2.48,12-1.16a6.16,6.16,0,0,0,.61-5.71c-2.4-4.28-6.77-3.77-11.31-3.41C268.21,607.54,267.79,610.89,267.35,614.38Z" transform="translate(-92 -195.89)"/><path d="M306,195.89c4.09.4,8.24.56,12.26,1.33,1.6.3,3.88,1.69,4.24,3,4.06,14.69,7.8,29.47,11.59,44.23a8.67,8.67,0,0,1,0,2l-13.85-.8c-.61-2.36-1.61-4.7-1.76-7.1-.29-4.36-2.8-5.51-6.57-5.49-2,0-4.06-.47-6-.07-1.45.3-3.36,1.35-3.89,2.57-4,9.22-6,10.19-16.75,6.83L304,195.89ZM316,224c-1.49-6.36-2.78-11.86-4.42-18.81l-6,17.88Z" transform="translate(-92 -195.89)"/><path d="M261.27,328.15c6.18-22.43,19.23-34,37.82-33.21,14,.56,31.11,8.92,35.42,33.27,1.39-.67,2.67-1.25,3.9-1.89,23-11.94,49,.07,54.73,25.37q7.56,33.48,14.86,67c.73,3.34,1.68,5.18,5.71,5,7-.25,9,2.66,8.06,9.65-2.67,20.06-18.78,35.38-41,35-19.15-.35-38.31-.07-57.47-.07H317c0,14.13-.07,27.6.11,41.06,0,1.35,1.36,2.92,2.48,4,7.4,7,14.93,13.79,22.39,20.69,2.32,2.15,4.94,4.2,3.43,8-1.43,3.66-4.46,3.91-7.79,3.9q-39.74-.06-79.47,0c-3.41,0-7-.41-7.43-4.13-.25-2.4,1.34-5.68,3.17-7.5,7.21-7.15,14.9-13.81,22.27-20.81,1.3-1.23,2.67-3.2,2.7-4.85.22-13.15.12-26.3.12-40-2.12-.11-4-.29-5.94-.3-21.16-.11-42.32.19-63.46-.39-18.81-.52-35.45-18.42-35.57-37.21,0-4.35,1.85-7,6.46-7.06,2,0,4,0,6.28,0,2.79-12.48,5.51-24.58,8.2-36.7,2.72-12.3,5.29-24.64,8.14-36.92,5.36-23,31-34.83,52.85-24.45C257.72,326.4,259.46,327.27,261.27,328.15Zm77.26,95.22a6.23,6.23,0,0,0,.29-1.52c-5.58-31.84-11.1-63.7-16.82-95.52-2.19-12.22-11.43-19.51-24-19.51s-21.84,7.33-24,19.43c-4.41,24.31-8.64,48.65-12.91,73-1.4,7.94-2.68,15.89-4.07,24.14ZM187.07,435.14c1.34,12,13.11,21.62,26.49,21.64q84.45.14,168.88-.13c4.76,0,9.87-1.73,14.16-3.93,6.85-3.52,11.13-9.47,12.75-17.58ZM397.2,423.59c-1.2-5.51-2.2-10.18-3.24-14.84-4.31-19.24-8.1-38.61-13.12-57.66-4.64-17.65-28.51-23.68-41.59-11a6.84,6.84,0,0,0-2,5.1q6.27,37.53,13,75c.24,1.31,2.1,3.29,3.23,3.31C367.84,423.67,382.14,423.59,397.2,423.59Zm-198.36,0c14.39,0,28.18-.15,42,.09,3.87.07,4.65-1.66,5.2-4.87q6.18-36.29,12.66-72.52a6.49,6.49,0,0,0-2.44-6.92c-14.9-12.67-37.75-4.65-42.14,14.87q-4.47,19.88-8.86,39.77C203.09,403.69,201,413.37,198.84,423.61Zm92,45c0,12.89-.44,25.23.17,37.51.36,7.24-1.84,12.4-7.45,16.75-4.06,3.16-7.64,6.95-11.8,10.79h52.63c-4.87-4.47-8.84-8.55-13.27-12-4.6-3.65-6.25-8-6.08-13.81.38-13,.12-25.92.12-39.19Z" transform="translate(-92 -195.89)"/><path d="M410.52,284.82l-8.95-8.41c10.91-11.7,21.65-23.2,32.87-35.22,3.75,3.56,7.54,6.75,10.74,10.44,1,1.13.83,3.76.39,5.51-2.33,9.44-4.92,18.82-7.6,28.91l20.37-22.38,9.07,8.33-32.82,35.21c-3.28-3-6.52-5.79-9.42-8.87-.75-.8-.8-2.72-.49-3.95,2.89-11.37,5.94-22.69,9.16-34.88Z" transform="translate(-92 -195.89)"/><path d="M181,275.05l-5.21-6-5.81,4.68-6.68-7.28,15.13-13.77,17.51,19.42c-5.56,9.27-12.36,17-22,21.9-8.12,4.12-16.16,3.89-23.53-1.44-7.7-5.56-11.45-13.26-10.33-22.92,1.26-11,14-25.06,25.54-27.93l4.23,8.3c-3.91,2.77-7.82,5-11.13,8-7.53,6.71-8.36,14.68-2.59,20.92s14.54,6.16,21.71-.43C178.87,277.56,179.76,276.38,181,275.05Z" transform="translate(-92 -195.89)"/><path d="M209.65,246.5l3.72,7.6,19.79-9.48c1.48,3,2.89,5.94,4.61,9.45l-31.65,15.46c-7.06-14.48-14-28.72-21.14-43.31l30.72-14.95c1.6,3.26,3,6.16,4.65,9.44l-18.64,9.21,3.19,6.91,17.7-8.41,4.7,9.31Z" transform="translate(-92 -195.89)"/><path d="M348.72,589.81,380.39,577c1.37,3.32,2.55,6.21,4,9.65l-19.18,8c.84,2.22,1.64,4.31,2.66,7l18.37-7.16c1.34,3.28,2.57,6.27,3.95,9.63L372,611.68l3.19,7.83,20.39-8.06c1.31,3.19,2.52,6.16,4,9.7L366.9,634.44Z" transform="translate(-92 -195.89)"/><path d="M340.19,611c.4,3.63.75,6.84,1.13,10.34l-19.24,2.78c.41,2.74.79,5.24,1.24,8.25l21.46-2.61L346.44,640l-34.95,4.78c-2.14-15.84-4.26-31.52-6.45-47.7l33.71-4.55c.55,3.49,1,6.54,1.6,10.22l-20.45,3.1c.19,2.55.34,4.63.55,7.41Z" transform="translate(-92 -195.89)"/><path d="M216.32,577.13,247.55,590c-1.47,3.55-2.72,6.54-4,9.68l-18.84-7.54c-1.08,2.51-2.08,4.86-3.36,7.85l17.72,7.5-3.89,9.64-17.83-7-7,16.58-12.22-4.86Z" transform="translate(-92 -195.89)"/><path d="M346.26,251.09l11.43-35.49-12.78-4.45,3.25-10.09L387,213.74l-3.3,10.08-13.21-4.1c-3.93,11.85-7.8,23.55-11.73,35.4Z" transform="translate(-92 -195.89)"/><path d="M280.2,244.43l-30.13,6.37c-2.63.56-3.69-.26-4.24-3.14-2.77-14.29-5.87-28.52-9-43.29l12.92-2.77c2.58,12.24,5.1,24.14,7.67,36.28l20.27-4.09C278.52,237.2,279.3,240.52,280.2,244.43Z" transform="translate(-92 -195.89)"/><path d="M391.2,271.1l-11.47-6.65c8-14,15.92-27.72,24-41.72l11.48,6.58Z" transform="translate(-92 -195.89)"/></svg>