<svg width="72" height="98" viewBox="0 0 72 98" fill="none" xmlns="http://www.w3.org/2000/svg">
<g clip-path="url(#clip0_128_227)">
<path d="M12.685 66.2673H59.315V22.5931H12.685V66.2895V66.2673ZM59.6693 66.9122H12V21.9482H60V66.9122H59.6693Z" fill="#231F20"/>
<path d="M36.0002 77.6972C44.0554 77.6972 51.3782 74.6063 56.6695 69.6029C61.9845 64.5994 65.268 57.7281 65.268 50.1452C65.268 42.5622 61.9845 35.6687 56.6695 30.6875C51.3546 25.6841 44.0554 22.5931 36.0002 22.5931C27.9451 22.5931 20.6223 25.6841 15.3309 30.6875C10.016 35.6909 6.73252 42.5622 6.73252 50.1452C6.73252 57.7281 10.016 64.6217 15.3309 69.6029C20.6459 74.6063 27.9451 77.6972 36.0002 77.6972ZM57.1656 70.0476C51.7325 75.1622 44.2443 78.3199 36.0239 78.3199C27.8034 78.3199 20.2916 75.1399 14.8821 70.0476C9.44906 64.933 6.09473 57.8838 6.09473 50.1452C6.09473 42.4066 9.47268 35.3351 14.8821 30.2428C20.3152 25.1282 27.8034 21.9705 36.0239 21.9705C44.2443 21.9705 51.7561 25.1504 57.1656 30.2428C62.5987 35.3573 65.953 42.4066 65.953 50.1452C65.953 57.8838 62.575 64.9552 57.1656 70.0476Z" fill="#231F20"/>
<path d="M34.7953 31.7327H58.2992H59.9764V44.3191C59.9764 50.5233 57.2835 56.1716 52.937 60.2632C48.5905 64.3549 42.5905 66.89 36 66.89C29.4094 66.89 23.4094 64.3549 19.0394 60.2632C14.6929 56.1716 12 50.5233 12 44.2968V22.5709C12 16.3667 14.6929 10.7184 19.0394 6.60451C23.3858 2.51284 29.3858 -0.0222168 36 -0.0222168C42.5905 -0.0222168 48.5905 2.51284 52.9606 6.60451C57.3071 10.6962 60 16.3445 60 22.5709H56.622C56.622 17.234 54.3071 12.3862 50.5512 8.85048C46.8189 5.33698 41.6457 3.13549 35.9764 3.13549C30.3071 3.13549 25.1575 5.31475 21.4016 8.85048C17.6693 12.364 15.3307 17.234 15.3307 22.5709V44.2968C15.3307 49.6338 17.6457 54.4815 21.4016 58.0173C25.1575 61.553 30.3071 63.7323 35.9764 63.7323C41.6457 63.7323 46.7953 61.553 50.5276 58.0173C54.2598 54.5038 56.5984 49.6338 56.5984 44.3191V34.9127H34.7717V31.7327H34.7953Z" fill="url(#paint0_linear_128_227)"/>
<path fill-rule="evenodd" clip-rule="evenodd" d="M3.75609 90.973H7.01593C7.27578 90.973 7.48837 91.1731 7.48837 91.4177V94.4865C7.48837 94.9757 7.39389 95.4205 7.20491 95.843C7.01593 96.2655 6.75609 96.6435 6.37814 96.9771C6.02381 97.3106 5.62223 97.5775 5.17341 97.7554C4.72459 97.9333 4.25215 98.0222 3.73247 98.0222C3.21278 98.0222 2.74034 97.9333 2.29152 97.7554C1.8427 97.5775 1.44113 97.3329 1.0868 96.9771C0.732468 96.6435 0.449003 96.2655 0.260027 95.843C0.0710507 95.4205 -0.0234375 94.9757 -0.0234375 94.4865V88.3268C-0.0234375 87.8375 0.0710507 87.3928 0.260027 86.9925C0.449003 86.57 0.708846 86.192 1.0868 85.8584C1.44113 85.5026 1.8427 85.258 2.29152 85.0801C2.74034 84.9022 3.21278 84.8132 3.73247 84.8132C4.25215 84.8132 4.72459 84.9022 5.17341 85.0801C5.62223 85.258 6.02381 85.5026 6.37814 85.8584C6.73247 86.192 7.01593 86.57 7.20491 86.9925C7.39389 87.415 7.48837 87.8598 7.48837 88.3268C7.48837 88.5714 7.27578 88.7715 7.01593 88.7715H6.18916C5.92932 88.7715 5.71672 88.5714 5.71672 88.3268C5.71672 88.0599 5.66948 87.8153 5.57499 87.6152C5.4805 87.3928 5.33877 87.1926 5.14979 87.0148C4.96081 86.8369 4.74822 86.7034 4.512 86.6145C4.27577 86.5255 4.01593 86.4811 3.75609 86.4811C3.49625 86.4811 3.23641 86.5255 3.00018 86.6145C2.76396 86.7034 2.55137 86.8369 2.36239 87.0148C2.17341 87.1926 2.03168 87.3928 1.93719 87.6152C1.8427 87.8375 1.79546 88.0599 1.79546 88.3268V94.4865C1.79546 94.7533 1.8427 94.998 1.93719 95.1981C2.03168 95.4205 2.17341 95.6206 2.38601 95.7985C2.57499 95.9764 2.78759 96.1321 3.02381 96.221C3.26003 96.31 3.49625 96.3544 3.77971 96.3544C4.06318 96.3544 4.2994 96.31 4.53562 96.221C4.77184 96.1321 4.98444 95.9986 5.17341 95.7985C5.36239 95.6206 5.50412 95.4205 5.62223 95.1981C5.71672 94.9757 5.76396 94.7311 5.76396 94.4865V92.6408H3.80333C3.54349 92.6408 3.33089 92.4407 3.33089 92.196V91.4177C3.33089 91.1731 3.54349 90.973 3.80333 90.973H3.75609ZM17.386 86.4588H12.1419V90.5505H15.7561C16.0159 90.5505 16.2285 90.7506 16.2285 90.9952V91.7735C16.2285 92.0182 16.0159 92.2183 15.7561 92.2183H12.1419V96.3544H17.386C17.6459 96.3544 17.8585 96.5546 17.8585 96.7992V97.5775C17.8585 97.8221 17.6459 98.0222 17.386 98.0222H10.8427C10.5829 98.0222 10.3703 97.8221 10.3703 97.5775V85.258C10.3703 85.0134 10.5829 84.8132 10.8427 84.8132H17.386C17.6459 84.8132 17.8585 85.0134 17.8585 85.258V86.0363C17.8585 86.2809 17.6459 86.4811 17.386 86.4811V86.4588ZM29.197 84.8132H30.0238C30.2837 84.8132 30.4962 85.0134 30.4962 85.258V97.5775C30.4962 97.8221 30.2837 98.0222 30.0238 98.0222C29.8585 98.0222 29.7167 97.9333 29.6222 97.8221L22.512 88.8827V97.5775C22.512 97.8221 22.2994 98.0222 22.0396 98.0222H21.2128C20.9529 98.0222 20.7403 97.8221 20.7403 97.5775V85.258C20.7403 85.0134 20.9529 84.8132 21.2128 84.8132C21.3781 84.8132 21.5199 84.9022 21.6144 85.0134L28.7246 93.9306V85.258C28.7246 85.0134 28.9372 84.8132 29.197 84.8132ZM40.3939 86.4588H35.1498V90.5505H38.764C39.0238 90.5505 39.2364 90.7506 39.2364 90.9952V91.7735C39.2364 92.0182 39.0238 92.2183 38.764 92.2183H35.1498V97.5552C35.1498 97.7999 34.9372 98 34.6774 98H33.8506C33.5907 98 33.3781 97.7999 33.3781 97.5552V85.2358C33.3781 84.9912 33.5907 84.791 33.8506 84.791H40.3939C40.6537 84.791 40.8663 84.9912 40.8663 85.2358V86.0141C40.8663 86.2587 40.6537 86.4588 40.3939 86.4588ZM50.7876 86.4588H48.4018V96.3322H50.7876C51.0474 96.3322 51.26 96.5323 51.26 96.7769V97.5552C51.26 97.7999 51.0474 98 50.7876 98H44.2443C43.9844 98 43.7718 97.7999 43.7718 97.5552V96.7769C43.7718 96.5323 43.9844 96.3322 44.2443 96.3322H46.6301V86.4588H44.2443C43.9844 86.4588 43.7718 86.2587 43.7718 86.0141V85.2358C43.7718 84.9912 43.9844 84.791 44.2443 84.791H50.7876C51.0474 84.791 51.26 84.9912 51.26 85.2358V86.0141C51.26 86.2587 51.0474 86.4588 50.7876 86.4588ZM54.6144 84.8132H61.1577C61.4175 84.8132 61.6301 85.0134 61.6301 85.258V86.0363C61.6301 86.2809 61.4175 86.4811 61.1577 86.4811H58.7718V97.5775C58.7718 97.8221 58.5592 98.0222 58.2994 98.0222H57.4726C57.2128 98.0222 57.0002 97.8221 57.0002 97.5775V86.4811H54.6144C54.3545 86.4811 54.1419 86.2809 54.1419 86.0363V85.258C54.1419 85.0134 54.3545 84.8132 54.6144 84.8132ZM65.6222 85.8362C65.9766 85.5026 66.3781 85.2358 66.827 85.0579C67.2758 84.88 67.7482 84.791 68.2679 84.791C68.7876 84.791 69.26 84.88 69.7088 85.0579C70.1577 85.2358 70.5592 85.4804 70.9136 85.8362C71.2679 86.1697 71.5514 86.5478 71.7403 86.9703C71.9293 87.3928 72.0238 87.8375 72.0238 88.3045V94.4643C72.0238 94.9535 71.9293 95.3982 71.7403 95.8207C71.5514 96.2432 71.2915 96.6213 70.9136 96.9548C70.5592 97.2884 70.1577 97.5553 69.7088 97.7332C69.26 97.9111 68.7876 98 68.2915 98C67.8191 98 67.3703 97.9333 66.9687 97.7776C66.5435 97.622 66.1655 97.3996 65.8112 97.1105C65.8112 97.1105 65.8112 97.1105 65.7876 97.0883C65.4569 96.7992 65.1734 96.4879 64.9608 96.1098C64.7718 95.7763 64.6537 95.4427 64.5829 95.0647C64.5592 94.998 64.5356 94.9312 64.5356 94.8645V88.3045C64.5356 87.8153 64.6301 87.3705 64.8191 86.9703C65.0081 86.5478 65.2679 86.1697 65.6459 85.8362H65.6222ZM70.2522 94.4865V88.3268C70.2522 88.0599 70.2049 87.8153 70.1104 87.6152C70.0159 87.3928 69.8742 87.1926 69.6852 87.0148C69.4962 86.8369 69.2837 86.7034 69.0474 86.6145C68.8112 86.5255 68.5514 86.4811 68.2915 86.4811C68.0317 86.4811 67.7718 86.5255 67.5356 86.6145C67.2994 86.7034 67.0868 86.8369 66.8978 87.0148C66.7088 87.1926 66.5671 87.3928 66.4726 87.6152C66.3781 87.8375 66.3309 88.0599 66.3309 88.3268V94.4865C66.3309 94.7533 66.3781 94.998 66.4726 95.1981C66.5671 95.4205 66.7088 95.6206 66.9214 95.7985C67.1104 95.9764 67.323 96.1321 67.5592 96.221C67.7955 96.31 68.0317 96.3544 68.3151 96.3544C68.5986 96.3544 68.8348 96.31 69.0711 96.221C69.3073 96.1321 69.5199 95.9986 69.7088 95.7985C69.8978 95.6206 70.0396 95.4205 70.1577 95.1981C70.2522 94.9757 70.2994 94.7311 70.2994 94.4865H70.2522Z" fill="#231F20"/>
</g>
<defs>
<linearGradient id="paint0_linear_128_227" x1="36" y1="2.05527e-05" x2="36" y2="66.9122" gradientUnits="userSpaceOnUse">
<stop stop-color="#1C75BC"/>
<stop offset="0.05" stop-color="#1C75BC"/>
<stop offset="0.37" stop-color="#1C75BC"/>
<stop offset="0.42" stop-color="#237DC1"/>
<stop offset="0.51" stop-color="#3793CF"/>
<stop offset="0.61" stop-color="#57B6E6"/>
<stop offset="0.67" stop-color="#6DCFF6"/>
<stop offset="0.73" stop-color="#68C9F2"/>
<stop offset="0.81" stop-color="#59B9E8"/>
<stop offset="0.89" stop-color="#429FD7"/>
<stop offset="0.99" stop-color="#217BBF"/>
<stop offset="1" stop-color="#1C75BC"/>
</linearGradient>
<clipPath id="clip0_128_227">
<rect width="72" height="98" fill="white"/>
</clipPath>
</defs>
</svg>
