<svg width="167" height="56" viewBox="0 0 167 56" fill="none" xmlns="http://www.w3.org/2000/svg">
<rect width="166.58" height="56" rx="28" fill="white"/>
<rect x="4" y="4" width="158.58" height="48" rx="24" fill="#A20101"/>
<path d="M31.0292 23.1307V21.3636H40.3133V23.1307H36.7167V33H34.6258V23.1307H31.0292ZM42.8311 33H40.5811L44.6777 21.3636H47.28L51.3822 33H49.1322L46.0243 23.75H45.9334L42.8311 33ZM42.905 28.4375H49.0413V30.1307H42.905V28.4375ZM53.5549 33V21.3636H55.6629V26.7102H55.8049L60.3447 21.3636H62.9185L58.4185 26.5852L62.9583 33H60.4242L56.9526 28.0114L55.6629 29.5341V33H53.5549ZM65.023 33V21.3636H72.5912V23.1307H67.131V26.2898H72.1992V28.0568H67.131V31.233H72.6367V33H65.023ZM81.4848 33H79.2348L83.3314 21.3636H85.9337L90.036 33H87.786L84.678 23.75H84.5871L81.4848 33ZM81.5587 28.4375H87.6951V30.1307H81.5587V28.4375ZM101.153 29.0909H103.062L104.192 30.5568L104.999 31.5114L106.937 34H104.891L103.573 32.3295L103.011 31.5341L101.153 29.0909ZM107.215 27.1818C107.215 28.4356 106.98 29.5095 106.511 30.4034C106.045 31.2936 105.408 31.9754 104.601 32.4489C103.798 32.9223 102.887 33.1591 101.869 33.1591C100.85 33.1591 99.9367 32.9223 99.1299 32.4489C98.3269 31.9716 97.6905 31.2879 97.2208 30.3977C96.7549 29.5038 96.522 28.4318 96.522 27.1818C96.522 25.928 96.7549 24.8561 97.2208 23.9659C97.6905 23.072 98.3269 22.3883 99.1299 21.9148C99.9367 21.4413 100.85 21.2045 101.869 21.2045C102.887 21.2045 103.798 21.4413 104.601 21.9148C105.408 22.3883 106.045 23.072 106.511 23.9659C106.98 24.8561 107.215 25.928 107.215 27.1818ZM105.096 27.1818C105.096 26.2992 104.958 25.5549 104.681 24.9489C104.408 24.339 104.03 23.8788 103.545 23.5682C103.06 23.2538 102.501 23.0966 101.869 23.0966C101.236 23.0966 100.677 23.2538 100.192 23.5682C99.7076 23.8788 99.3269 24.339 99.0504 24.9489C98.7776 25.5549 98.6413 26.2992 98.6413 27.1818C98.6413 28.0644 98.7776 28.8106 99.0504 29.4205C99.3269 30.0265 99.7076 30.4867 100.192 30.8011C100.677 31.1117 101.236 31.267 101.869 31.267C102.501 31.267 103.06 31.1117 103.545 30.8011C104.03 30.4867 104.408 30.0265 104.681 29.4205C104.958 28.8106 105.096 28.0644 105.096 27.1818ZM117.199 21.3636H119.307V28.9659C119.307 29.7992 119.11 30.5322 118.716 31.1648C118.326 31.7973 117.777 32.2917 117.068 32.6477C116.36 33 115.532 33.1761 114.585 33.1761C113.634 33.1761 112.805 33 112.097 32.6477C111.388 32.2917 110.839 31.7973 110.449 31.1648C110.059 30.5322 109.864 29.7992 109.864 28.9659V21.3636H111.972V28.7898C111.972 29.2746 112.078 29.7064 112.29 30.0852C112.506 30.464 112.809 30.7614 113.199 30.9773C113.589 31.1894 114.051 31.2955 114.585 31.2955C115.119 31.2955 115.581 31.1894 115.972 30.9773C116.366 30.7614 116.669 30.464 116.881 30.0852C117.093 29.7064 117.199 29.2746 117.199 28.7898V21.3636ZM124.346 21.3636V33H122.238V21.3636H124.346ZM127.053 33V31.6875L133.019 23.1307H127.019V21.3636H135.632V22.6761L129.672 31.233H135.666V33H127.053Z" fill="white"/>
</svg>
